G04*
G04 #@! TF.GenerationSoftware,Altium Limited,Altium Designer,23.11.1 (41)*
G04*
G04 Layer_Physical_Order=1*
G04 Layer_Color=255*
%FSLAX25Y25*%
%MOIN*%
G70*
G04*
G04 #@! TF.SameCoordinates,8D3607F6-0EDD-4B5D-BFDE-71B222FAF683*
G04*
G04*
G04 #@! TF.FilePolarity,Positive*
G04*
G01*
G75*
%ADD11C,0.01181*%
%ADD12C,0.01000*%
%ADD14C,0.01575*%
%ADD21R,0.13386X0.05118*%
%ADD22R,0.03937X0.05709*%
%ADD23R,0.03740X0.03937*%
%ADD24R,0.05315X0.01575*%
%ADD25R,0.06299X0.08268*%
%ADD26R,0.07480X0.07087*%
%ADD27R,0.07480X0.07480*%
%ADD28R,0.01181X0.04724*%
%ADD29R,0.04724X0.01181*%
%ADD30R,0.05118X0.01614*%
%ADD31R,0.05906X0.03543*%
%ADD32R,0.03543X0.05906*%
%ADD33R,0.03543X0.03543*%
%ADD34R,0.03937X0.03740*%
%ADD35R,0.05906X0.02756*%
%ADD36R,0.03150X0.03937*%
%ADD37R,0.01614X0.05118*%
%ADD38R,0.12992X0.06299*%
%ADD39R,0.04724X0.06299*%
%ADD40R,0.04331X0.02362*%
%ADD41R,0.04921X0.06299*%
%ADD42R,0.03937X0.01968*%
%ADD43R,0.17323X0.12992*%
%ADD44R,0.24410X0.15354*%
%ADD45R,0.08268X0.04331*%
%ADD46R,0.03150X0.04370*%
%ADD47R,0.05709X0.03937*%
%ADD48R,0.04134X0.02165*%
%ADD49R,0.02165X0.04134*%
%ADD50R,0.10799X0.08500*%
%ADD51R,0.06299X0.06299*%
%ADD52R,0.04331X0.09055*%
%ADD53R,0.07874X0.11811*%
%ADD97C,0.08268*%
%ADD99C,0.02756*%
%ADD100C,0.01470*%
%ADD101C,0.03937*%
%ADD102C,0.05906*%
%ADD103C,0.07874*%
%ADD104C,0.03150*%
%ADD105C,0.01968*%
%ADD106C,0.01470*%
%ADD107C,0.05906*%
%ADD108C,0.11811*%
%ADD109C,0.09843*%
%ADD110C,0.03937*%
%ADD111O,0.07874X0.15748*%
%ADD112O,0.15748X0.07874*%
%ADD113O,0.07087X0.14173*%
%ADD114O,0.04724X0.05906*%
%ADD115O,0.05906X0.04724*%
%ADD116C,0.07874*%
%ADD117C,0.01575*%
%ADD118C,0.01968*%
G36*
X78550Y396113D02*
X79113Y395550D01*
X79417Y394815D01*
Y394417D01*
Y357417D01*
X30417D01*
Y394417D01*
Y394815D01*
X30722Y395550D01*
X31284Y396113D01*
X32019Y396417D01*
X32417Y396417D01*
X32417Y396417D01*
X77815D01*
X78550Y396113D01*
D02*
G37*
G36*
X210751Y396110D02*
X212207Y395507D01*
X213517Y394631D01*
X214631Y393517D01*
X215507Y392207D01*
X216110Y390751D01*
X216417Y389205D01*
Y388417D01*
Y371417D01*
Y370432D01*
X216033Y368500D01*
X215279Y366681D01*
X214185Y365043D01*
X212792Y363650D01*
X211154Y362555D01*
X209334Y361802D01*
X207402Y361417D01*
X196417D01*
X195731Y361384D01*
X194385Y361116D01*
X193117Y360591D01*
X191977Y359828D01*
X191006Y358858D01*
X190244Y357717D01*
X189719Y356449D01*
X189451Y355103D01*
X189417Y354417D01*
Y348417D01*
Y347826D01*
X189187Y346667D01*
X188734Y345575D01*
X188078Y344592D01*
X187242Y343757D01*
X186259Y343100D01*
X185168Y342648D01*
X184008Y342417D01*
X169023D01*
X168251Y342571D01*
X167523Y342873D01*
X166867Y343310D01*
X166310Y343867D01*
X165873Y344523D01*
X165571Y345251D01*
X165417Y346023D01*
Y346417D01*
Y386417D01*
Y387402D01*
X165802Y389334D01*
X166555Y391154D01*
X167650Y392792D01*
X169043Y394185D01*
X170680Y395279D01*
X172500Y396033D01*
X174432Y396417D01*
X209205D01*
X210751Y396110D01*
D02*
G37*
G36*
X106417Y330417D02*
Y327417D01*
X30417D01*
Y352417D01*
X86417D01*
Y360417D01*
Y361417D01*
X106417D01*
Y330417D01*
D02*
G37*
G36*
X163550Y282113D02*
X164113Y281550D01*
X164417Y280815D01*
Y280417D01*
X164417Y261417D01*
X164319Y261122D01*
X164010Y260581D01*
X163602Y260110D01*
X163110Y259728D01*
X162553Y259450D01*
X161952Y259285D01*
X161331Y259241D01*
X160713Y259319D01*
X160417Y259417D01*
X160417Y259417D01*
X142417Y258417D01*
X141442Y258271D01*
X139558Y257696D01*
X137821Y256765D01*
X136300Y255513D01*
X135053Y253988D01*
X134127Y252249D01*
X133558Y250363D01*
X133368Y248402D01*
X133417Y247417D01*
Y246728D01*
X133148Y245375D01*
X132621Y244102D01*
X131855Y242955D01*
X130879Y241980D01*
X129733Y241214D01*
X128459Y240686D01*
X127107Y240417D01*
X103218D01*
X102851Y240570D01*
X102570Y240851D01*
X102417Y241218D01*
Y241417D01*
Y243417D01*
Y252417D01*
Y253304D01*
X102763Y255043D01*
X103442Y256680D01*
X104427Y258155D01*
X105680Y259408D01*
X107154Y260393D01*
X108792Y261071D01*
X110531Y261417D01*
X111417Y261417D01*
X111417Y261417D01*
X139417Y261417D01*
X140005Y261446D01*
X141159Y261676D01*
X142246Y262126D01*
X143224Y262779D01*
X144055Y263611D01*
X144709Y264589D01*
X145159Y265676D01*
X145388Y266829D01*
X145417Y267417D01*
X145417Y267417D01*
Y272417D01*
Y273402D01*
X145802Y275334D01*
X146555Y277154D01*
X147650Y278792D01*
X149043Y280185D01*
X150680Y281279D01*
X152500Y282033D01*
X154432Y282417D01*
X155417Y282417D01*
X155417Y282417D01*
X162815D01*
X163550Y282113D01*
D02*
G37*
G36*
X54417Y264417D02*
X69547D01*
X71479Y264033D01*
X73299Y263279D01*
X74936Y262185D01*
X75633Y261488D01*
X79838Y257283D01*
X79976Y257146D01*
X80192Y256822D01*
X80341Y256462D01*
X80417Y256079D01*
Y255885D01*
Y247800D01*
Y247045D01*
X80123Y245565D01*
X79545Y244171D01*
X78707Y242916D01*
X78173Y242382D01*
X78058Y242268D01*
X77789Y242088D01*
X77489Y241963D01*
X77171Y241900D01*
X64268D01*
Y242190D01*
X42891D01*
X42740Y242219D01*
X42599Y242278D01*
X42472Y242363D01*
X42417Y242417D01*
X42180Y242655D01*
X41806Y243214D01*
X41548Y243836D01*
X41417Y244495D01*
Y244831D01*
Y261417D01*
Y261655D01*
X41510Y262122D01*
X41601Y262341D01*
X41601D01*
X41601Y262341D01*
X41692Y262561D01*
X41956Y262956D01*
X42124Y263124D01*
X42417Y263417D01*
Y310417D01*
X54417D01*
Y264417D01*
D02*
G37*
G36*
X122584Y279264D02*
X123312Y278962D01*
X123967Y278524D01*
X124524Y277967D01*
X124962Y277312D01*
X125264Y276584D01*
X125417Y275811D01*
Y275417D01*
Y274432D01*
X125033Y272500D01*
X124279Y270680D01*
X123185Y269043D01*
X121792Y267650D01*
X120154Y266555D01*
X118334Y265802D01*
X116402Y265417D01*
X104417D01*
X103437Y265369D01*
X101514Y264987D01*
X99703Y264236D01*
X98073Y263147D01*
X96687Y261761D01*
X95598Y260131D01*
X94848Y258320D01*
X94466Y256398D01*
X94417Y255417D01*
Y249417D01*
Y248531D01*
X94072Y246792D01*
X93393Y245154D01*
X92408Y243680D01*
X91154Y242427D01*
X89680Y241442D01*
X88042Y240763D01*
X86304Y240417D01*
X85023D01*
X84251Y240571D01*
X83523Y240873D01*
X82867Y241310D01*
X82310Y241867D01*
X81873Y242523D01*
X81571Y243251D01*
X81417Y244023D01*
Y244417D01*
Y272417D01*
Y273107D01*
X81686Y274459D01*
X82214Y275733D01*
X82980Y276880D01*
X83955Y277855D01*
X85102Y278621D01*
X86375Y279148D01*
X87728Y279417D01*
X121811D01*
X122584Y279264D01*
D02*
G37*
G36*
X112417Y222210D02*
Y210417D01*
X98875D01*
Y222394D01*
X112601D01*
X112417Y222210D01*
D02*
G37*
G36*
X70846Y239141D02*
X70885Y239097D01*
X71029Y238881D01*
X71224Y238411D01*
X71323Y237913D01*
X71323Y237659D01*
X71323Y209137D01*
X100679D01*
X100679Y209137D01*
X100679Y209137D01*
X100679D01*
X101139Y209094D01*
X101396Y209043D01*
X101843Y208858D01*
X102246Y208589D01*
X102417Y208417D01*
X102417Y185417D01*
X51417D01*
Y239417D01*
X70407D01*
X70429Y239418D01*
X70473Y239427D01*
X70514Y239444D01*
X70846Y239141D01*
D02*
G37*
G36*
X42417Y232417D02*
Y184417D01*
X54417D01*
Y171417D01*
X51252D01*
X41252Y161417D01*
X13417D01*
Y183417D01*
X14417Y184417D01*
X22417D01*
Y205417D01*
X21417Y206417D01*
X14417D01*
Y229417D01*
Y230850D01*
Y233417D01*
X42417D01*
Y232417D01*
D02*
G37*
G36*
X73708Y154685D02*
X87150D01*
X87417Y154417D01*
X87370Y154370D01*
Y144638D01*
X77638D01*
X77833Y144833D01*
Y152417D01*
X71966D01*
Y143078D01*
X71841Y142994D01*
X71664Y142729D01*
X71602Y142417D01*
X71664Y142105D01*
X71778Y141934D01*
Y130926D01*
X71749Y130885D01*
X71713Y130803D01*
X71664Y130729D01*
X71652Y130669D01*
X64166D01*
Y152417D01*
X48372D01*
X48246Y154077D01*
Y156937D01*
X55937D01*
X57391Y158391D01*
Y165417D01*
X73708D01*
Y154685D01*
D02*
G37*
G36*
X123417Y141090D02*
X115417D01*
Y161417D01*
X123417D01*
Y141090D01*
D02*
G37*
G36*
X233417Y138417D02*
X222417D01*
Y144417D01*
X221765Y145070D01*
X199307D01*
Y145133D01*
Y151307D01*
X199417Y151417D01*
X233417D01*
Y138417D01*
D02*
G37*
G36*
X27417Y136417D02*
X12417D01*
Y136950D01*
Y156417D01*
X27417D01*
Y136417D01*
D02*
G37*
G36*
X185500Y126000D02*
X178500D01*
Y131000D01*
X178154Y133522D01*
X178500Y133175D01*
Y134000D01*
X185500D01*
Y126000D01*
D02*
G37*
G36*
X99417Y144976D02*
Y128417D01*
X83417D01*
Y130417D01*
X72417D01*
X72594Y130669D01*
Y142241D01*
X72417Y142417D01*
X88417D01*
Y145417D01*
X99417D01*
Y144976D01*
D02*
G37*
G36*
X45417Y136406D02*
X52803D01*
Y127803D01*
X52417Y127417D01*
X52380Y127455D01*
X43417D01*
Y120417D01*
Y119181D01*
X40902Y119102D01*
X40095D01*
X40902Y119909D01*
Y139303D01*
X45417D01*
Y136406D01*
D02*
G37*
G36*
X242417Y129949D02*
Y123417D01*
X228417D01*
Y131346D01*
X241020D01*
X242417Y129949D01*
D02*
G37*
G36*
X39417Y140103D02*
X39373D01*
Y132794D01*
Y125794D01*
X39417D01*
Y125021D01*
X39294D01*
Y118302D01*
X39417D01*
Y117417D01*
X33417D01*
Y124713D01*
X32509D01*
Y125021D01*
X30417D01*
Y144417D01*
X39417D01*
Y140103D01*
D02*
G37*
G36*
X29301Y130301D02*
X29417Y130253D01*
Y109417D01*
X5417D01*
Y130301D01*
X29301D01*
D02*
G37*
G36*
X227417Y106417D02*
Y101417D01*
X221009D01*
Y101957D01*
Y102076D01*
Y103826D01*
Y106878D01*
X226957D01*
X227417Y106417D01*
D02*
G37*
G36*
X105417Y96417D02*
X100417D01*
Y90417D01*
Y89441D01*
X71316D01*
Y93317D01*
X71417Y93417D01*
X64417D01*
Y99417D01*
X67417Y102417D01*
X68417Y101417D01*
X78417D01*
Y101494D01*
X82341Y105417D01*
X105417D01*
Y96417D01*
D02*
G37*
G36*
X216417Y99417D02*
X204417D01*
Y110417D01*
X216417D01*
Y99417D01*
D02*
G37*
G36*
X21417Y98417D02*
X6417D01*
Y107417D01*
X21417D01*
Y98417D01*
D02*
G37*
G36*
X61995Y128840D02*
X62417Y128417D01*
X75417D01*
Y104417D01*
X57417D01*
Y92417D01*
X43417D01*
Y117417D01*
X55417D01*
Y138965D01*
X55051Y139331D01*
X61995D01*
Y128840D01*
D02*
G37*
G36*
X78417Y42417D02*
X48417D01*
Y82417D01*
Y83417D01*
X78417D01*
Y42417D01*
D02*
G37*
G36*
X226417Y43417D02*
Y42417D01*
Y41417D01*
X202417D01*
Y55417D01*
X226417D01*
Y43417D01*
D02*
G37*
G36*
X253417Y34417D02*
X228417D01*
Y58417D01*
X253417D01*
Y34417D01*
D02*
G37*
G36*
X198417Y42019D02*
X200019Y40417D01*
X210417D01*
Y29417D01*
X202417D01*
Y31417D01*
X201417Y32417D01*
X190402D01*
Y57417D01*
X198417D01*
Y42019D01*
D02*
G37*
G36*
X143417Y27417D02*
X113417D01*
Y54417D01*
X143417D01*
Y27417D01*
D02*
G37*
G36*
X46417Y40552D02*
X46283Y40417D01*
X56307D01*
X56417Y40307D01*
Y18417D01*
X14480D01*
Y19480D01*
Y40417D01*
X21666D01*
Y72169D01*
X21417Y72417D01*
X14417D01*
Y89179D01*
X14156Y89441D01*
X15132Y90417D01*
X46417D01*
Y40552D01*
D02*
G37*
G36*
X253417Y10417D02*
X228417D01*
Y33417D01*
X253417D01*
Y10417D01*
D02*
G37*
G36*
X184000D02*
X160417D01*
Y14417D01*
X151417D01*
Y18417D01*
X161417D01*
X161417Y21417D01*
X184000D01*
Y10417D01*
D02*
G37*
G36*
X91417Y7417D02*
X90417Y6417D01*
X83614D01*
Y13284D01*
X83655Y13417D01*
X91417D01*
Y7417D01*
D02*
G37*
G36*
X159598Y13236D02*
Y8071D01*
X186417D01*
Y3512D01*
X146417D01*
Y13417D01*
X159417D01*
X159598Y13236D01*
D02*
G37*
%LPC*%
G36*
X37024Y139697D02*
X35161D01*
Y136949D01*
X37024D01*
Y139697D01*
D02*
G37*
G36*
X34161D02*
X32299D01*
Y136949D01*
X34161D01*
Y139697D01*
D02*
G37*
G36*
X37024Y135949D02*
X35161D01*
Y133201D01*
X37024D01*
Y135949D01*
D02*
G37*
G36*
X34161D02*
X32299D01*
Y133201D01*
X34161D01*
Y135949D01*
D02*
G37*
G36*
X37024Y132697D02*
X35161D01*
Y129949D01*
X37024D01*
Y132697D01*
D02*
G37*
G36*
X34161D02*
X32299D01*
Y129949D01*
X34161D01*
Y132697D01*
D02*
G37*
G36*
X37024Y128949D02*
X35161D01*
Y126201D01*
X37024D01*
Y128949D01*
D02*
G37*
G36*
X34161D02*
X32299D01*
Y126201D01*
X34161D01*
Y128949D01*
D02*
G37*
G36*
X37102Y124614D02*
X36402D01*
Y122161D01*
X37102D01*
Y124614D01*
D02*
G37*
G36*
X35402D02*
X34701D01*
Y122161D01*
X35402D01*
Y124614D01*
D02*
G37*
G36*
X37102Y121161D02*
X36402D01*
Y118709D01*
X37102D01*
Y121161D01*
D02*
G37*
G36*
X35402D02*
X34701D01*
Y118709D01*
X35402D01*
Y121161D01*
D02*
G37*
%LPD*%
D11*
X81500Y13000D02*
X82988Y11512D01*
X86567D01*
X175583Y116417D02*
X177000Y115000D01*
X172417Y116417D02*
X175583D01*
X175000Y119000D02*
X177000D01*
X172417Y116417D02*
X175000Y119000D01*
X221417Y118417D02*
X222417Y119417D01*
X219063Y118417D02*
X221417D01*
X178677Y68138D02*
Y72158D01*
X178417Y72417D02*
X178677Y72158D01*
X143516Y81433D02*
X149473D01*
X161417Y77417D02*
X165992D01*
X160417Y78417D02*
X161417Y77417D01*
X165992D02*
X166992Y76417D01*
X166417Y125417D02*
X167417Y126417D01*
X166417Y122716D02*
Y125417D01*
X153095Y85055D02*
X157630D01*
X210417Y136417D02*
Y139677D01*
X219417Y136417D02*
Y139417D01*
X216417Y138417D02*
X218417Y140417D01*
X213417Y136417D02*
Y138677D01*
X216417Y136417D02*
Y138417D01*
X165374Y132461D02*
X165417Y132505D01*
X165157Y132677D02*
X165374Y132461D01*
X218417Y140417D02*
X219417Y139417D01*
X211417Y140677D02*
X213417Y138677D01*
X210417Y139677D02*
X211417Y140677D01*
X225417Y188417D02*
X226417Y187417D01*
Y184417D02*
Y187417D01*
X234157Y193697D02*
X234437Y193417D01*
X239417D01*
X195417Y108417D02*
X198417Y105417D01*
X199677D01*
X195417Y90417D02*
X200417D01*
X180417Y97417D02*
X184677D01*
X149473Y81433D02*
X153095Y85055D01*
X102417Y135417D02*
X102489Y135489D01*
X107134D01*
X102417Y128417D02*
X106937D01*
X94417Y121417D02*
X99118D01*
X88417Y120417D02*
Y124417D01*
X102087Y100634D02*
X110748Y109295D01*
Y115201D01*
X120323Y141170D02*
X120571Y141417D01*
X132417D01*
X145567Y150417D02*
X147567Y148417D01*
X149417D01*
X135417Y144417D02*
X138417Y141417D01*
Y140567D02*
Y141417D01*
X132158Y141157D02*
X132417Y141417D01*
X132158Y136417D02*
Y141157D01*
X176937Y123898D02*
X177417Y123417D01*
X172417Y123898D02*
X176937D01*
X165157Y132677D02*
Y136697D01*
X222417Y119417D02*
X223417Y118417D01*
X190417Y76417D02*
X199716D01*
X200417Y77118D01*
X185677Y52417D02*
X186417Y51677D01*
Y47417D02*
Y51677D01*
X183417Y47417D02*
Y50157D01*
X185677Y52417D01*
X163417Y51417D02*
X165118Y49716D01*
Y46417D02*
Y49716D01*
X160417Y78417D02*
Y82268D01*
X159576Y89109D02*
X163102D01*
X166417Y116417D02*
X172417D01*
X163148Y115321D02*
Y115321D01*
Y115321D02*
X163902Y116075D01*
Y116166D01*
X163102Y115366D02*
X163148Y115321D01*
X163902Y116166D02*
X164153Y116417D01*
X166417D01*
X162417Y119417D02*
X165717Y122716D01*
X166417D01*
X167598Y123898D01*
X172417D01*
X159268Y89417D02*
X159576Y89109D01*
X159417Y83268D02*
X160417Y82268D01*
X157630Y85055D02*
X159417Y83268D01*
X155417Y89417D02*
X159268D01*
X108878Y97590D02*
Y98764D01*
X104417Y93031D02*
Y93129D01*
X108878Y98764D02*
X110748Y100634D01*
X104417Y93129D02*
X108878Y97590D01*
X105433Y118547D02*
Y121402D01*
X105417Y121417D02*
X105433Y121402D01*
X102087Y115890D02*
X103957Y117760D01*
X104646D02*
X105433Y118547D01*
X102087Y115201D02*
Y115890D01*
X103957Y117760D02*
X104646D01*
D12*
X133000Y100500D02*
X135335D01*
X137417Y98417D01*
Y94715D02*
Y98417D01*
X133000Y95500D02*
X133335D01*
X134481Y94353D01*
Y92583D02*
Y94353D01*
X134500Y105000D02*
X139835D01*
X144402Y100433D01*
X137500Y109000D02*
X139835D01*
X149417Y99417D01*
X133500Y113500D02*
X140335D01*
X152417Y101417D01*
X226417Y160980D02*
Y165417D01*
X225937Y160500D02*
X226417Y160980D01*
X168567Y25567D02*
X181000D01*
X113433Y135489D02*
X114417Y134505D01*
Y128417D02*
Y134505D01*
X358431Y44905D02*
X362000D01*
X348525Y35000D02*
X358431Y44905D01*
X326718Y35000D02*
X348525D01*
X319909Y31909D02*
X320000Y32000D01*
X315689Y31909D02*
X319909D01*
X361223Y33094D02*
X362000D01*
X356488Y28360D02*
X361223Y33094D01*
X356488Y22488D02*
Y28360D01*
X350000Y16000D02*
X356488Y22488D01*
X317468Y16000D02*
X350000D01*
X308800Y24669D02*
X317468Y16000D01*
X304000Y47000D02*
X305000Y46000D01*
X308850D01*
X304000Y43000D02*
X305850D01*
X308850Y46000D01*
X311949Y39350D02*
X319350D01*
X321000Y41000D01*
Y48000D01*
X320740D02*
X321000D01*
X315740Y53000D02*
X320740Y48000D01*
X308260Y52890D02*
X315150Y46000D01*
X308260Y52890D02*
Y53000D01*
X315099Y24669D02*
Y25020D01*
X308209Y31909D02*
X315099Y25020D01*
X232417Y157417D02*
Y162417D01*
X223805Y59955D02*
X224267Y60417D01*
X222267Y58417D02*
X223805Y59955D01*
X194417Y72417D02*
X196267D01*
X198267Y70417D01*
X202267Y58417D02*
X222267D01*
X198267Y62417D02*
Y70417D01*
Y62417D02*
X202267Y58417D01*
X200417Y67417D02*
Y70417D01*
Y67417D02*
X205417Y62417D01*
X146370Y85624D02*
X146939Y85055D01*
X146370Y85624D02*
Y89683D01*
X173417Y95417D02*
Y96417D01*
Y95417D02*
X184963Y83872D01*
X169417Y95417D02*
X176417Y88417D01*
X169417Y98268D02*
X174567Y103417D01*
X169417Y95417D02*
Y98268D01*
X176417Y88417D02*
X184417Y80417D01*
Y76567D02*
Y80417D01*
X161417Y73417D02*
X165118Y69717D01*
Y69417D02*
Y69717D01*
X161417Y63417D02*
X165118D01*
X67417Y4417D02*
X92702D01*
X93419Y5134D01*
Y10419D01*
X108417Y25417D01*
X126417Y87417D02*
X128682Y89683D01*
X37417Y10323D02*
X37512Y10417D01*
X37417Y5417D02*
Y10323D01*
Y5417D02*
X37728Y5107D01*
X55425D01*
X80417Y30099D01*
Y36417D01*
X118417Y129417D02*
X118893Y129893D01*
X140852Y128982D02*
X142433Y127402D01*
X138417Y128417D02*
X139052Y127783D01*
Y127382D02*
Y127783D01*
Y127382D02*
X139625Y126809D01*
X138417Y128417D02*
Y134268D01*
X140852Y128982D02*
Y130801D01*
X121417Y101417D02*
Y102417D01*
X122384Y103384D01*
X121417Y95417D02*
X121588Y95588D01*
X126685D01*
X141417Y94620D02*
Y97417D01*
X142314Y98314D01*
X141417Y94620D02*
X142355Y93682D01*
Y89761D02*
Y93682D01*
X144402Y89683D02*
Y100433D01*
X142355Y89761D02*
X142433Y89683D01*
X138417Y101417D02*
X139564Y100271D01*
Y93345D02*
Y100271D01*
X152417Y94417D02*
Y101417D01*
X151345Y93345D02*
X152417Y94417D01*
X150385Y92385D02*
Y92583D01*
X151147Y93345D02*
X151345D01*
X150307Y92307D02*
X150385Y92385D01*
Y92583D02*
X151147Y93345D01*
X150307Y89683D02*
Y92307D01*
X149417Y96417D02*
Y99417D01*
X148339Y95339D02*
X149417Y96417D01*
X148339Y89683D02*
Y95339D01*
X156135Y120246D02*
Y122643D01*
X153982Y119485D02*
X155373D01*
X156135Y120246D01*
Y122643D02*
X159417Y125926D01*
X150431Y119485D02*
X151436D01*
X152198Y120246D01*
Y121252D01*
X152231Y121285D01*
X152276D02*
Y123147D01*
X152231Y121285D02*
X152276D01*
X152182Y117685D02*
X153982Y119485D01*
X151176Y117685D02*
X152182D01*
X154244Y123147D02*
X154335Y123238D01*
Y123389D01*
X149613Y118667D02*
X150431Y119485D01*
X154335Y123389D02*
X156417Y125471D01*
X148909Y115417D02*
X151176Y117685D01*
X148167Y118667D02*
X149613D01*
X156417Y125471D02*
Y127417D01*
X159417Y125926D02*
Y131417D01*
X141417Y115417D02*
X148909D01*
X141417D02*
Y117340D01*
X147417Y118417D02*
X147667Y118167D01*
X148167Y118667D01*
X155417Y113417D02*
X157214D01*
X141417Y117340D02*
X143562Y119485D01*
X144324Y123069D02*
X144402Y123147D01*
X144324Y120246D02*
Y123069D01*
X143562Y119485D02*
X144324Y120246D01*
X139617Y93345D02*
X139625D01*
X139564D02*
X139617D01*
X139625D02*
X140387Y92583D01*
Y91830D02*
Y92583D01*
Y89761D02*
Y91830D01*
X152276Y85875D02*
X153095Y85055D01*
X152276Y85875D02*
Y89683D01*
X149178Y126809D02*
X152310D01*
X153918Y128417D01*
Y136553D01*
X156602Y132758D02*
Y135622D01*
X156417Y132573D02*
X156602Y132758D01*
X156417Y132505D02*
Y132573D01*
X132158Y136417D02*
X132567Y136008D01*
Y130417D02*
Y136008D01*
X118417Y129417D02*
X120417Y127417D01*
Y125716D02*
Y127417D01*
X122384Y103384D02*
X126607D01*
X126685Y103462D01*
X200271Y134188D02*
Y134263D01*
X201032Y135024D01*
X199307Y134188D02*
X200271D01*
X201237Y135024D02*
X204130Y137917D01*
X201032Y135024D02*
X201237D01*
X159417Y131417D02*
X161417Y133417D01*
X200630Y129417D02*
X204130Y132917D01*
X198417Y129417D02*
X200630D01*
X150417Y129094D02*
Y129417D01*
X148416Y126048D02*
X149178Y126809D01*
X141630Y131579D02*
X142791Y130417D01*
X146448Y126998D02*
X148867Y129417D01*
X142791Y130417D02*
X143417D01*
X144480Y128330D02*
X150417Y134268D01*
X144480Y123225D02*
Y128330D01*
X146448Y123225D02*
Y126998D01*
X141630Y131579D02*
X144319Y134268D01*
X140852Y130801D02*
X141630Y131579D01*
X142433Y123147D02*
Y127402D01*
X140387Y125009D02*
Y125028D01*
X139625Y126809D02*
X140387Y126048D01*
Y125028D02*
Y126048D01*
Y125009D02*
X140465D01*
Y123147D02*
Y125009D01*
X136417Y126080D02*
Y127417D01*
X148867Y129417D02*
X150417D01*
X148339Y125339D02*
X148416Y125417D01*
Y126048D01*
X148339Y123147D02*
Y125339D01*
X228976Y200417D02*
X229697Y201138D01*
X206417Y200417D02*
X228976D01*
X160072Y113382D02*
X160150Y113305D01*
X157249Y113382D02*
X160072D01*
X157214Y113417D02*
X157249Y113382D01*
X196417Y86417D02*
X197740D01*
X202924Y86587D02*
X203094Y86417D01*
X203417D02*
X207417Y82417D01*
X203094Y86417D02*
X203417D01*
X197910Y86587D02*
X202924D01*
X197740Y86417D02*
X197910Y86587D01*
X203417Y72417D02*
X210417D01*
X205417Y62417D02*
X210417D01*
X207417Y82417D02*
X210417D01*
X165417Y103417D02*
X168268D01*
X164417Y102417D02*
X165417Y103417D01*
X164417Y100970D02*
Y102417D01*
X163050Y99603D02*
X164417Y100970D01*
X162603Y99603D02*
X163050D01*
X162525Y99525D02*
X162603Y99603D01*
X160150Y99525D02*
X162525D01*
X170417Y89417D02*
X181588Y78246D01*
X168992Y89417D02*
X170417D01*
X184417Y76567D02*
X192417Y68567D01*
X184963Y83872D02*
X194732D01*
X181588Y75059D02*
Y78246D01*
X181552Y75023D02*
X181588Y75059D01*
X181552Y65414D02*
Y75023D01*
X144417Y140567D02*
Y145417D01*
X124677Y136417D02*
X126268Y134827D01*
Y130417D02*
Y134827D01*
X172417Y123898D02*
X173417Y124898D01*
Y132905D01*
Y140417D02*
Y143929D01*
Y140417D02*
X175917Y137917D01*
X180705D01*
X173417Y152748D02*
X178464D01*
X178921Y152291D01*
Y149701D02*
Y152291D01*
Y149701D02*
X180705Y147917D01*
X173417Y148417D02*
X174349D01*
X176475Y146291D01*
Y145011D02*
Y146291D01*
Y145011D02*
X176567Y144919D01*
X178704D01*
X180705Y142917D01*
X136450Y123225D02*
X136528Y123147D01*
X136450Y123225D02*
Y126048D01*
X136417Y126080D02*
X136450Y126048D01*
X133720Y126809D02*
X133720D01*
X134481Y126048D01*
Y123225D02*
Y126048D01*
X132567Y127962D02*
X133720Y126809D01*
X132567Y127962D02*
Y130417D01*
X134481Y123225D02*
X134559Y123147D01*
X126268Y127074D02*
Y130417D01*
Y127074D02*
X130195Y123147D01*
X132591D01*
X120417Y135417D02*
X121772Y134063D01*
X123209D01*
X121417Y131417D02*
X122417Y130417D01*
X126268D01*
X194732Y83872D02*
X195187Y83417D01*
X200417D01*
X169417Y79417D02*
X171417Y77417D01*
X175417Y67417D02*
Y79417D01*
X171417Y69417D02*
Y77417D01*
X168417Y86417D02*
X175417Y79417D01*
X140387Y89761D02*
X140465Y89683D01*
X134481Y89761D02*
X134559Y89683D01*
X134481Y89761D02*
Y92583D01*
X136606Y89761D02*
Y93903D01*
X137417Y94715D01*
X136528Y89683D02*
X136606Y89761D01*
X161417Y57417D02*
X165118D01*
X161858Y32858D02*
X164677D01*
X161417Y32417D02*
X161858Y32858D01*
X171417Y39417D02*
Y46417D01*
X163009Y115273D02*
X163102Y115366D01*
X160150Y115273D02*
X163009D01*
X160150Y117242D02*
X160242D01*
X162417Y119417D01*
X154244Y89683D02*
X154509Y89417D01*
X155417D01*
X165118Y39417D02*
X165598D01*
X172158Y32858D01*
X168417Y25417D02*
X168567Y25567D01*
X161417Y25417D02*
X168417D01*
X157512Y21512D02*
X161417Y25417D01*
X155465Y21512D02*
X157512D01*
X86567Y26512D02*
X87472Y27417D01*
X93417D01*
X92512Y31512D02*
X93417Y32417D01*
X86567Y31512D02*
X92512D01*
X128682Y89683D02*
X132591D01*
X166992Y91417D02*
X168992Y89417D01*
X177417Y62417D02*
X179653Y64653D01*
X180790D01*
X181552Y65414D01*
X176417Y62417D02*
X177417D01*
X171417Y57417D02*
X176417Y62417D01*
X166992Y86417D02*
X168417D01*
X171417Y63417D02*
X175417Y67417D01*
X168992Y79417D02*
X169417D01*
X166992Y81417D02*
X168992Y79417D01*
X163336Y111336D02*
X164417Y112417D01*
X160150Y111336D02*
X163336D01*
X160150Y109368D02*
X163467D01*
X164417Y108417D01*
X156602Y135622D02*
X157677Y136697D01*
X139268Y146567D02*
X139417Y146417D01*
X139268Y146567D02*
Y150417D01*
X125417Y145417D02*
Y149567D01*
X126268Y150417D01*
X146370Y123147D02*
X146448Y123225D01*
X132567Y150417D02*
X139268D01*
X102370Y143204D02*
X111661D01*
X102370Y150204D02*
X111661D01*
X102370Y157204D02*
X111661D01*
X150417Y140567D02*
Y145417D01*
X144417Y140567D02*
X150417D01*
X144402Y123147D02*
X144480Y123225D01*
X144319Y134268D02*
X144417D01*
X123209Y134063D02*
X124677Y135531D01*
Y136417D01*
X120417Y115417D02*
Y119417D01*
X120516D02*
X122692Y117242D01*
X120417Y119417D02*
X120516D01*
X122692Y117242D02*
X126685D01*
X114417Y123679D02*
X115417Y122679D01*
X114417Y123679D02*
Y128417D01*
X115417Y122417D02*
Y122679D01*
X119679Y104417D02*
X120693Y105430D01*
X119417Y104417D02*
X119679D01*
X120693Y105430D02*
X126685D01*
X116003Y107321D02*
X126607D01*
X115417Y106735D02*
X116003Y107321D01*
X115417Y109953D02*
Y117980D01*
X116003Y109368D02*
X126685D01*
X115417Y109953D02*
X116003Y109368D01*
X115417Y97417D02*
Y106735D01*
X111980Y121417D02*
X115417Y117980D01*
X126607Y107321D02*
X126685Y107399D01*
X105417Y121417D02*
X111980D01*
X111031Y93031D02*
X115417Y97417D01*
X104417Y93031D02*
X111031D01*
D14*
X210000Y118000D02*
X210417Y118417D01*
X213968D01*
X120836Y9417D02*
X132417D01*
X120417D02*
X120836D01*
X132417D02*
X133417Y10417D01*
Y11417D01*
X137417Y15417D01*
X154370D01*
X155465Y16512D01*
X156417Y169417D02*
X165929Y159906D01*
Y150417D02*
Y159906D01*
Y148650D02*
Y150417D01*
X161417Y144138D02*
X165929Y148650D01*
X192157Y103157D02*
X192417Y103417D01*
X192157Y97417D02*
Y103157D01*
X200417Y97898D02*
X205898Y92417D01*
X210417D01*
X211947D01*
X190417Y95677D02*
X192157Y97417D01*
X190417Y91417D02*
Y95677D01*
X226417Y178118D02*
X226716Y178417D01*
X231417D01*
Y187417D01*
X226677Y192157D02*
X231417Y187417D01*
X226677Y192157D02*
Y193697D01*
X218417Y212417D02*
X229697Y201138D01*
X226417Y171716D02*
Y178118D01*
X237968Y168717D02*
X240528Y171276D01*
X232417Y168717D02*
X237968D01*
X235480Y154417D02*
X240528Y159465D01*
X227417Y154417D02*
X235480D01*
X179417Y40417D02*
Y57697D01*
Y40417D02*
X206417Y13417D01*
X186158Y68138D02*
X186547D01*
X192417Y62268D01*
X179417Y57697D02*
X182417Y60697D01*
X25824Y98236D02*
X30902D01*
X24902Y99159D02*
Y105299D01*
Y99159D02*
X25824Y98236D01*
X17130Y112583D02*
X18902Y114354D01*
Y124949D01*
X13902Y112583D02*
X17130D01*
X18902Y124949D02*
X22189Y121661D01*
X30902D01*
X30882Y120434D02*
X30902Y120454D01*
Y121661D01*
X28559Y120434D02*
X30882D01*
X24902Y116777D02*
X28559Y120434D01*
X24902Y111598D02*
Y116777D01*
D21*
X13902Y104315D02*
D03*
Y112583D02*
D03*
D22*
X94890Y157204D02*
D03*
X102370D02*
D03*
X94890Y143204D02*
D03*
X102370D02*
D03*
X94890Y150204D02*
D03*
X102370D02*
D03*
X192157Y97417D02*
D03*
X184677D02*
D03*
X308260Y53000D02*
D03*
X315740D02*
D03*
X34661Y136449D02*
D03*
X42142D02*
D03*
X34661Y129449D02*
D03*
X42142D02*
D03*
X199677Y105417D02*
D03*
X207157D02*
D03*
X124677Y136417D02*
D03*
X132158D02*
D03*
X114417Y128417D02*
D03*
X106937D02*
D03*
X185677Y52417D02*
D03*
X193157D02*
D03*
D23*
X111661Y143204D02*
D03*
X117961D02*
D03*
X111661Y150204D02*
D03*
X117961D02*
D03*
X111661Y157204D02*
D03*
X117961D02*
D03*
X308850Y46000D02*
D03*
X315150D02*
D03*
X315099Y24669D02*
D03*
X308800D02*
D03*
X132567Y150417D02*
D03*
X126268D02*
D03*
X139268D02*
D03*
X145567D02*
D03*
X171417Y46417D02*
D03*
X165118D02*
D03*
X205567Y114417D02*
D03*
X199268D02*
D03*
X205567Y122417D02*
D03*
X199268D02*
D03*
X174567Y103417D02*
D03*
X168268D02*
D03*
X113433Y135489D02*
D03*
X107134D02*
D03*
X171417Y39417D02*
D03*
X165118D02*
D03*
Y57417D02*
D03*
X171417D02*
D03*
X165118Y69417D02*
D03*
X171417D02*
D03*
X165118Y63417D02*
D03*
X171417D02*
D03*
X126268Y130417D02*
D03*
X132567D02*
D03*
X105417Y121417D02*
D03*
X99118D02*
D03*
X104417Y93031D02*
D03*
X98118D02*
D03*
D24*
X236886Y119142D02*
D03*
Y116583D02*
D03*
Y121701D02*
D03*
Y114024D02*
D03*
Y124260D02*
D03*
D25*
X237378Y106937D02*
D03*
Y131346D02*
D03*
D26*
X247417Y104181D02*
D03*
Y134102D02*
D03*
D27*
Y114417D02*
D03*
Y123866D02*
D03*
D28*
X132591Y123147D02*
D03*
X134559D02*
D03*
X136528D02*
D03*
X138496D02*
D03*
X140465D02*
D03*
X142433D02*
D03*
X144402D02*
D03*
X146370D02*
D03*
X148339D02*
D03*
X150307D02*
D03*
X152276D02*
D03*
X154244D02*
D03*
Y89683D02*
D03*
X152276D02*
D03*
X150307D02*
D03*
X148339D02*
D03*
X146370D02*
D03*
X144402D02*
D03*
X142433D02*
D03*
X140465D02*
D03*
X138496D02*
D03*
X136528D02*
D03*
X134559D02*
D03*
X132591D02*
D03*
D29*
X160150Y117242D02*
D03*
Y115273D02*
D03*
Y113305D02*
D03*
Y111336D02*
D03*
Y109368D02*
D03*
Y107399D02*
D03*
Y105430D02*
D03*
Y103462D02*
D03*
Y101494D02*
D03*
Y99525D02*
D03*
Y97557D02*
D03*
Y95588D02*
D03*
X126685D02*
D03*
Y97557D02*
D03*
Y99525D02*
D03*
Y101494D02*
D03*
Y103462D02*
D03*
Y105430D02*
D03*
Y107399D02*
D03*
Y109368D02*
D03*
Y111336D02*
D03*
Y113304D02*
D03*
Y115273D02*
D03*
Y117242D02*
D03*
D03*
D30*
X166992Y76417D02*
D03*
Y91417D02*
D03*
Y86417D02*
D03*
Y81417D02*
D03*
X190417Y76417D02*
D03*
Y81417D02*
D03*
Y86417D02*
D03*
Y91417D02*
D03*
X204130Y147917D02*
D03*
Y142917D02*
D03*
Y137917D02*
D03*
Y132917D02*
D03*
X180705Y137917D02*
D03*
Y142917D02*
D03*
Y147917D02*
D03*
Y132917D02*
D03*
D31*
X155465Y16512D02*
D03*
Y21512D02*
D03*
Y26512D02*
D03*
Y31512D02*
D03*
Y36512D02*
D03*
Y41512D02*
D03*
Y46512D02*
D03*
Y51512D02*
D03*
Y56512D02*
D03*
Y61512D02*
D03*
Y66512D02*
D03*
Y71512D02*
D03*
Y76512D02*
D03*
X86567Y11512D02*
D03*
Y16512D02*
D03*
Y21512D02*
D03*
Y26512D02*
D03*
Y31512D02*
D03*
Y36512D02*
D03*
Y41512D02*
D03*
Y46512D02*
D03*
Y51512D02*
D03*
Y56512D02*
D03*
Y61512D02*
D03*
Y66512D02*
D03*
Y71512D02*
D03*
Y76512D02*
D03*
X155465Y11512D02*
D03*
D32*
X143516Y81433D02*
D03*
X138516D02*
D03*
X133516D02*
D03*
X128516D02*
D03*
X123516D02*
D03*
X118516D02*
D03*
X113516D02*
D03*
X108516D02*
D03*
X103516D02*
D03*
X98516D02*
D03*
D33*
X127905Y41906D02*
D03*
Y36394D02*
D03*
X122394Y41906D02*
D03*
X127905Y47417D02*
D03*
X133417Y41906D02*
D03*
Y47417D02*
D03*
X122394D02*
D03*
Y36394D02*
D03*
X133417D02*
D03*
D34*
X200417Y77118D02*
D03*
Y83417D02*
D03*
X226417Y165417D02*
D03*
Y171716D02*
D03*
Y184417D02*
D03*
Y178118D02*
D03*
X138417Y134268D02*
D03*
Y140567D02*
D03*
X150417Y134268D02*
D03*
Y140567D02*
D03*
X144417Y134268D02*
D03*
Y140567D02*
D03*
X227417Y154417D02*
D03*
Y148118D02*
D03*
X181000Y18850D02*
D03*
Y25150D02*
D03*
X232417Y162417D02*
D03*
Y168717D02*
D03*
X192417Y68567D02*
D03*
Y62268D02*
D03*
X24902Y111598D02*
D03*
Y105299D02*
D03*
X49949Y148768D02*
D03*
Y155067D02*
D03*
X159417Y89567D02*
D03*
Y83268D02*
D03*
X120417Y119417D02*
D03*
Y125716D02*
D03*
X166417Y122716D02*
D03*
Y116417D02*
D03*
D35*
X240528Y159465D02*
D03*
Y171276D02*
D03*
Y177181D02*
D03*
D36*
X251551Y153953D02*
D03*
X243284D02*
D03*
X251551Y182693D02*
D03*
X243284D02*
D03*
D37*
X30902Y121661D02*
D03*
X35902D02*
D03*
X40902D02*
D03*
X45902D02*
D03*
X40902Y98236D02*
D03*
X35902D02*
D03*
X30902D02*
D03*
X45902D02*
D03*
D38*
X67449Y159016D02*
D03*
D39*
X76504Y133819D02*
D03*
X67449D02*
D03*
X58394D02*
D03*
D40*
X213968Y122158D02*
D03*
Y118417D02*
D03*
Y114677D02*
D03*
X223417Y122158D02*
D03*
Y118417D02*
D03*
Y114677D02*
D03*
D41*
X110748Y115201D02*
D03*
Y100634D02*
D03*
X102087Y115201D02*
D03*
Y100634D02*
D03*
D42*
X173417Y148417D02*
D03*
Y152748D02*
D03*
D43*
X65417Y195417D02*
D03*
X66417Y53417D02*
D03*
D44*
X30181Y172583D02*
D03*
Y223370D02*
D03*
X31181Y30583D02*
D03*
Y81370D02*
D03*
D45*
X210417Y92417D02*
D03*
Y82417D02*
D03*
Y72417D02*
D03*
Y62417D02*
D03*
Y52417D02*
D03*
D46*
X161417Y144138D02*
D03*
X165157Y136697D02*
D03*
X157677D02*
D03*
X230417Y201138D02*
D03*
X234157Y193697D02*
D03*
X226677D02*
D03*
X186158Y68138D02*
D03*
X178677D02*
D03*
X182417Y60697D02*
D03*
X172158Y32858D02*
D03*
X164677D02*
D03*
X168417Y25417D02*
D03*
X311949Y39350D02*
D03*
X315689Y31909D02*
D03*
X308209D02*
D03*
D47*
X218417Y147898D02*
D03*
Y140417D02*
D03*
X211417Y148158D02*
D03*
Y140677D02*
D03*
X200417Y90417D02*
D03*
Y97898D02*
D03*
X232575Y30779D02*
D03*
Y38260D02*
D03*
X240575Y30779D02*
D03*
Y38260D02*
D03*
X248575Y30779D02*
D03*
Y38260D02*
D03*
X49949Y141917D02*
D03*
Y134437D02*
D03*
X88417Y131898D02*
D03*
Y124417D02*
D03*
X84417Y140417D02*
D03*
Y147898D02*
D03*
X172417Y123898D02*
D03*
Y116417D02*
D03*
X171417Y5937D02*
D03*
Y13417D02*
D03*
X178417Y5937D02*
D03*
Y13417D02*
D03*
X164417Y5677D02*
D03*
Y13158D02*
D03*
D48*
X154905Y150417D02*
D03*
X165929D02*
D03*
X195394Y200417D02*
D03*
X206417D02*
D03*
X223929Y104417D02*
D03*
X212906D02*
D03*
D49*
X67417Y235394D02*
D03*
Y246417D02*
D03*
X173417Y143929D02*
D03*
Y132905D02*
D03*
D50*
X19139Y142964D02*
D03*
Y125563D02*
D03*
D51*
X75417Y250504D02*
D03*
Y236331D02*
D03*
D52*
X88378Y251134D02*
D03*
X108457Y251134D02*
D03*
X88378Y216587D02*
D03*
X108457Y216587D02*
D03*
D53*
X67417Y97394D02*
D03*
Y119441D02*
D03*
D97*
X15221Y197976D02*
D03*
X16220Y55976D02*
D03*
D99*
X47417Y304417D02*
G03*
X47260Y304037I380J-380D01*
G01*
X234096Y113249D02*
X235902D01*
X232923Y113411D02*
X233933D01*
X223929Y104417D02*
X232923Y113411D01*
X233933D02*
X234096Y113249D01*
X47260Y259417D02*
Y304037D01*
D100*
X213968Y114677D02*
X223417D01*
X213968Y122158D02*
X223417D01*
X227117Y116601D02*
Y116909D01*
X233503D01*
X233593Y116820D01*
X227117Y119378D02*
X236649D01*
X227117D02*
Y120234D01*
X236649Y119378D02*
X236886Y119142D01*
X233593Y116820D02*
X236649D01*
X226218Y115701D02*
X227117Y116601D01*
X236649Y116820D02*
X236886Y116583D01*
X205567Y122417D02*
X205827Y122158D01*
X213968D01*
X205827Y114677D02*
X213968D01*
X205567Y114417D02*
X205827Y114677D01*
X224442Y121133D02*
X226218D01*
X223417Y114677D02*
X224442Y115701D01*
X226218D01*
Y121133D02*
X227117Y120234D01*
X223417Y122158D02*
X224442Y121133D01*
D101*
X232575Y38260D02*
Y76260D01*
X190732Y146102D02*
Y173417D01*
Y146102D02*
X191417Y145417D01*
X183917Y137917D02*
X191417Y145417D01*
X180705Y137917D02*
X183917D01*
X34661Y147533D02*
X81545Y194417D01*
X237378Y106937D02*
X240134Y104181D01*
X247417D01*
Y114417D02*
Y123866D01*
Y104181D02*
Y114417D01*
Y123866D02*
Y134102D01*
X244661Y131346D02*
X247417Y134102D01*
X237378Y131346D02*
X244661D01*
X211947Y92417D02*
X216417D01*
X232575Y76260D01*
X82417Y194417D02*
X86287Y198287D01*
X95287D02*
X96417Y199417D01*
X86287Y198287D02*
X95287D01*
X81545Y194417D02*
X82417D01*
X34661Y136449D02*
Y147533D01*
X75417Y222417D02*
X81248Y216587D01*
X88378D01*
X75417Y222417D02*
Y236331D01*
X71192Y388041D02*
X71569Y388417D01*
X64041Y388041D02*
X71192D01*
X40417Y364417D02*
X64041Y388041D01*
D102*
X117146Y221146D02*
X123417Y227417D01*
X124417D01*
X127417D02*
X151417Y251417D01*
X124417Y227417D02*
X127417D01*
X151417Y251417D02*
X175417D01*
X212417Y288417D02*
Y291417D01*
X175417Y251417D02*
X212417Y288417D01*
D103*
X158417Y242417D02*
X176417D01*
X195394Y223441D01*
Y200417D02*
Y223441D01*
X112911Y190417D02*
X122417D01*
X94417D02*
X112911D01*
Y196911D02*
X158417Y242417D01*
X112911Y190417D02*
Y196911D01*
X96417Y194417D02*
Y199417D01*
X93417Y191417D02*
X96417Y194417D01*
X93417Y191417D02*
X94417Y190417D01*
X122417D02*
X134417Y178417D01*
Y175417D02*
Y178417D01*
D104*
Y170417D02*
Y175417D01*
Y170417D02*
X144417Y160417D01*
D105*
X144905D01*
X154905Y150417D01*
X193157Y46362D02*
Y52417D01*
X76417Y181417D02*
X82417Y187417D01*
X76417Y166417D02*
Y181417D01*
Y166417D02*
X85417Y157417D01*
X90417D01*
X196404Y43116D02*
X206417Y33102D01*
X193157Y46362D02*
X196404Y43116D01*
X90417Y157417D02*
X90630Y157204D01*
X94890D01*
X90417Y150417D02*
X90630Y150204D01*
X94890D01*
X50835Y141917D02*
X56768Y135984D01*
X57016D02*
X58394Y134606D01*
X49949Y141917D02*
X50835D01*
X56768Y135984D02*
X57016D01*
X58394Y133819D02*
Y134606D01*
X49949Y141917D02*
Y148768D01*
X44417Y148417D02*
X49598D01*
X49949Y148768D01*
X44417Y141417D02*
X49449D01*
X49949Y141917D01*
D106*
X164417Y108417D02*
X165948Y109948D01*
X185948D01*
X164417Y112417D02*
X184925D01*
X194925Y122417D01*
X199268D01*
X185948Y109948D02*
X190417Y114417D01*
X199268D01*
D107*
X47417Y304417D02*
D03*
X27732D02*
D03*
X116732Y272047D02*
D03*
X156102D02*
D03*
X97047Y350787D02*
D03*
X175787D02*
D03*
X71569Y388417D02*
D03*
X209266D02*
D03*
X190732Y173417D02*
D03*
X210417D02*
D03*
X47260Y259417D02*
D03*
X27575D02*
D03*
D108*
X40417Y364417D02*
D03*
Y344417D02*
D03*
X215000Y271000D02*
D03*
Y291000D02*
D03*
Y322000D02*
D03*
Y342000D02*
D03*
D109*
X96417Y199417D02*
D03*
X156417D02*
D03*
X86417Y169417D02*
D03*
X116417D02*
D03*
X156417D02*
D03*
X158417Y242417D02*
D03*
X218417D02*
D03*
X148417Y212417D02*
D03*
X178417D02*
D03*
X218417D02*
D03*
D110*
X318681Y72976D02*
D03*
X304469Y86992D02*
D03*
X318524Y87169D02*
D03*
D111*
X32937Y197976D02*
D03*
X33937Y55976D02*
D03*
D112*
X45535Y179079D02*
D03*
X46535Y37079D02*
D03*
D113*
X57740Y202307D02*
D03*
X58740Y60307D02*
D03*
D114*
X49323Y10417D02*
D03*
X43417D02*
D03*
X37512D02*
D03*
X31606D02*
D03*
X25701D02*
D03*
X19795D02*
D03*
D115*
X362000Y50811D02*
D03*
Y44905D02*
D03*
Y39000D02*
D03*
Y33094D02*
D03*
Y27189D02*
D03*
Y21283D02*
D03*
D116*
X206417Y13417D02*
D03*
Y33102D02*
D03*
D117*
X133000Y100500D02*
D03*
Y95500D02*
D03*
X134500Y105000D02*
D03*
X137500Y109000D02*
D03*
X133500Y113500D02*
D03*
X130000Y247000D02*
D03*
Y252500D02*
D03*
X124000D02*
D03*
X130500Y257500D02*
D03*
X124500Y258000D02*
D03*
X118500Y253000D02*
D03*
X119000Y258000D02*
D03*
X124500Y242000D02*
D03*
X129500Y241500D02*
D03*
X118500Y247000D02*
D03*
X119000Y242000D02*
D03*
X81500Y13000D02*
D03*
X225937Y160500D02*
D03*
X183000Y127000D02*
D03*
X100000Y220000D02*
D03*
Y212000D02*
D03*
Y216000D02*
D03*
X105000D02*
D03*
Y212000D02*
D03*
X177000Y119000D02*
D03*
Y115000D02*
D03*
X219063Y118417D02*
D03*
X210000Y118000D02*
D03*
X326718Y35000D02*
D03*
X325000Y39000D02*
D03*
X333000Y40000D02*
D03*
X320000Y32000D02*
D03*
X325000Y43000D02*
D03*
X336000Y31000D02*
D03*
X344000D02*
D03*
X340000D02*
D03*
X331000D02*
D03*
X348000D02*
D03*
X303000Y30000D02*
D03*
X304000Y43000D02*
D03*
Y47000D02*
D03*
X352000Y31000D02*
D03*
X309000Y59000D02*
D03*
X311000Y62000D02*
D03*
X313000Y71000D02*
D03*
X267000Y58000D02*
D03*
X263000Y43000D02*
D03*
Y47000D02*
D03*
Y38000D02*
D03*
X286000Y15000D02*
D03*
X280000D02*
D03*
X275000D02*
D03*
X268000D02*
D03*
Y19000D02*
D03*
Y24000D02*
D03*
X351000Y61000D02*
D03*
X333000Y67000D02*
D03*
X347000Y40000D02*
D03*
X350000Y12000D02*
D03*
X342000D02*
D03*
X334000D02*
D03*
X232417Y157417D02*
D03*
X223805Y59955D02*
D03*
X200417Y70417D02*
D03*
X194417Y72417D02*
D03*
X178417D02*
D03*
X146939Y85055D02*
D03*
X173417Y96417D02*
D03*
X161417Y73417D02*
D03*
Y63417D02*
D03*
X120836Y9417D02*
D03*
X150417Y11417D02*
D03*
X147417D02*
D03*
X67417Y4417D02*
D03*
X108417Y25417D02*
D03*
X124016Y53150D02*
D03*
X127953D02*
D03*
X124016Y29528D02*
D03*
X126417Y87417D02*
D03*
X80417Y36417D02*
D03*
X91417Y102417D02*
D03*
X45417Y88417D02*
D03*
X118893Y129893D02*
D03*
X136417Y127417D02*
D03*
X121417Y101417D02*
D03*
Y95417D02*
D03*
X142314Y98314D02*
D03*
X138417Y101417D02*
D03*
X147417Y118417D02*
D03*
X155417Y113417D02*
D03*
X167417Y126417D02*
D03*
X153918Y136553D02*
D03*
X156417Y132505D02*
D03*
X124417Y227417D02*
D03*
X117146Y221146D02*
D03*
X122417Y159417D02*
D03*
X199307Y134188D02*
D03*
X210417Y136417D02*
D03*
X213417D02*
D03*
X216417D02*
D03*
X219417D02*
D03*
X165417Y132505D02*
D03*
X161417Y133417D02*
D03*
X198417Y129417D02*
D03*
X143417Y130417D02*
D03*
X225417Y188417D02*
D03*
X239417Y193417D02*
D03*
X195417Y108417D02*
D03*
X192417Y103417D02*
D03*
X180417Y97417D02*
D03*
X195417Y90417D02*
D03*
X196417Y86417D02*
D03*
X156417Y127417D02*
D03*
X203417Y72417D02*
D03*
X52417Y129417D02*
D03*
X49417D02*
D03*
X46417D02*
D03*
X72417Y164417D02*
D03*
X67417D02*
D03*
X63417D02*
D03*
X59417D02*
D03*
X58199Y154685D02*
D03*
X54654Y156143D02*
D03*
X84417Y151417D02*
D03*
X102417Y135417D02*
D03*
Y128417D02*
D03*
X94417Y121417D02*
D03*
X88417Y120417D02*
D03*
X85417Y91417D02*
D03*
Y97417D02*
D03*
Y102417D02*
D03*
X91417Y97417D02*
D03*
Y91417D02*
D03*
X122417Y152417D02*
D03*
Y146417D02*
D03*
X149417Y148417D02*
D03*
X135417Y144417D02*
D03*
X132417Y141417D02*
D03*
X177417Y123417D02*
D03*
X232417Y139417D02*
D03*
Y143417D02*
D03*
X228417D02*
D03*
X224417D02*
D03*
X228417Y139417D02*
D03*
X224417D02*
D03*
X229417Y124417D02*
D03*
Y130417D02*
D03*
Y127382D02*
D03*
X232417Y124417D02*
D03*
Y127417D02*
D03*
Y130417D02*
D03*
X215417Y109417D02*
D03*
X211417D02*
D03*
X214417Y100417D02*
D03*
X211417D02*
D03*
X208417D02*
D03*
X205417D02*
D03*
X15417Y74417D02*
D03*
X16417Y81417D02*
D03*
X15417Y88417D02*
D03*
X45417Y75417D02*
D03*
Y82417D02*
D03*
X222441Y53150D02*
D03*
X224410Y49213D02*
D03*
X222441Y45276D02*
D03*
X218504Y53150D02*
D03*
X220473Y49213D02*
D03*
X218504Y45276D02*
D03*
X216536Y49213D02*
D03*
X214567Y45276D02*
D03*
X210630D02*
D03*
X206693D02*
D03*
X186417Y47417D02*
D03*
X183417D02*
D03*
X141732Y49213D02*
D03*
Y41339D02*
D03*
Y33465D02*
D03*
X139764Y29528D02*
D03*
X135827Y53150D02*
D03*
Y29528D02*
D03*
X131890Y53150D02*
D03*
Y29528D02*
D03*
X120079Y53150D02*
D03*
Y29528D02*
D03*
X116142Y53150D02*
D03*
Y45276D02*
D03*
Y37402D02*
D03*
Y29528D02*
D03*
X250000Y21654D02*
D03*
X251969Y17717D02*
D03*
X250000Y13780D02*
D03*
X246063Y21654D02*
D03*
X248032Y17717D02*
D03*
X246063Y13780D02*
D03*
X242126Y21654D02*
D03*
X244095Y17717D02*
D03*
X242126Y13780D02*
D03*
X238189Y21654D02*
D03*
X240158Y17717D02*
D03*
X238189Y13780D02*
D03*
X234252Y21654D02*
D03*
X236221Y17717D02*
D03*
X234252Y13780D02*
D03*
X230315Y21654D02*
D03*
X232284Y17717D02*
D03*
X230315Y13780D02*
D03*
X250000Y53150D02*
D03*
Y45276D02*
D03*
X246063Y53150D02*
D03*
X248032Y49213D02*
D03*
X246063Y45276D02*
D03*
X242126Y53150D02*
D03*
X244095Y49213D02*
D03*
X242126Y45276D02*
D03*
X238189Y53150D02*
D03*
X240158Y49213D02*
D03*
X238189Y45276D02*
D03*
X234252Y53150D02*
D03*
X236221Y49213D02*
D03*
X234252Y45276D02*
D03*
X230315Y53150D02*
D03*
X232284Y49213D02*
D03*
X230315Y45276D02*
D03*
X161417Y57417D02*
D03*
X163417Y51417D02*
D03*
X160417Y78417D02*
D03*
X161417Y32417D02*
D03*
X163102Y89109D02*
D03*
X212599Y375985D02*
D03*
X210630Y372047D02*
D03*
X212599Y368110D02*
D03*
X208662Y375985D02*
D03*
X206693Y372047D02*
D03*
X208662Y368110D02*
D03*
X206693Y364174D02*
D03*
X202756Y387795D02*
D03*
Y379922D02*
D03*
X204725Y375985D02*
D03*
X202756Y372047D02*
D03*
X204725Y368110D02*
D03*
X202756Y364174D02*
D03*
X200788Y391733D02*
D03*
X198819Y387795D02*
D03*
X200788Y383858D02*
D03*
X198819Y379922D02*
D03*
X200788Y375985D02*
D03*
X198819Y372047D02*
D03*
X200788Y368110D02*
D03*
X198819Y364174D02*
D03*
X196851Y391733D02*
D03*
X194882Y387795D02*
D03*
X196851Y383858D02*
D03*
X194882Y379922D02*
D03*
X196851Y375985D02*
D03*
X194882Y372047D02*
D03*
X196851Y368110D02*
D03*
X194882Y364174D02*
D03*
X192913Y391733D02*
D03*
X190945Y387795D02*
D03*
X192913Y383858D02*
D03*
X190945Y379922D02*
D03*
X192913Y375985D02*
D03*
X190945Y372047D02*
D03*
X192913Y368110D02*
D03*
X190945Y364174D02*
D03*
X76772Y375985D02*
D03*
X74803Y379922D02*
D03*
X72835Y375985D02*
D03*
X74803Y372047D02*
D03*
X70866Y379922D02*
D03*
X68898Y375985D02*
D03*
X70866Y372047D02*
D03*
X64961Y391733D02*
D03*
Y383858D02*
D03*
X66929Y379922D02*
D03*
X64961Y375985D02*
D03*
X66929Y372047D02*
D03*
X64961Y368110D02*
D03*
X66929Y364174D02*
D03*
X64961Y360237D02*
D03*
X61024Y391733D02*
D03*
X62992Y387795D02*
D03*
X61024Y383858D02*
D03*
X62992Y379922D02*
D03*
X61024Y375985D02*
D03*
X62992Y372047D02*
D03*
X61024Y368110D02*
D03*
X62992Y364174D02*
D03*
X61024Y360237D02*
D03*
X57087Y391733D02*
D03*
X59055Y387795D02*
D03*
X57087Y383858D02*
D03*
X59055Y379922D02*
D03*
X57087Y375985D02*
D03*
X59055Y372047D02*
D03*
X57087Y368110D02*
D03*
X59055Y364174D02*
D03*
X57087Y360237D02*
D03*
X53150Y391733D02*
D03*
X55118Y387795D02*
D03*
X53150Y383858D02*
D03*
X55118Y379922D02*
D03*
X53150Y375985D02*
D03*
X55118Y372047D02*
D03*
X53150Y368110D02*
D03*
X55118Y364174D02*
D03*
X53150Y360237D02*
D03*
X49213Y391733D02*
D03*
X51181Y387795D02*
D03*
X49213Y383858D02*
D03*
X51181Y379922D02*
D03*
Y372047D02*
D03*
Y364174D02*
D03*
X45276Y391733D02*
D03*
X47244Y387795D02*
D03*
X45276Y383858D02*
D03*
X47244Y379922D02*
D03*
X41339Y391733D02*
D03*
X43307Y387795D02*
D03*
X41339Y383858D02*
D03*
X43307Y379922D02*
D03*
X37402Y391733D02*
D03*
X39370Y387795D02*
D03*
X37402Y383858D02*
D03*
X39370Y379922D02*
D03*
X33465Y391733D02*
D03*
X35433Y387795D02*
D03*
X33465Y383858D02*
D03*
X35433Y379922D02*
D03*
X68417Y346165D02*
D03*
Y338291D02*
D03*
Y330417D02*
D03*
X66449Y350102D02*
D03*
X64480Y346165D02*
D03*
X66449Y342228D02*
D03*
X64480Y338291D02*
D03*
X66449Y334354D02*
D03*
X64480Y330417D02*
D03*
X62512Y350102D02*
D03*
X60543Y346165D02*
D03*
X62512Y342228D02*
D03*
X60543Y338291D02*
D03*
X62512Y334354D02*
D03*
X60543Y330417D02*
D03*
X58575Y350102D02*
D03*
X56606Y346165D02*
D03*
X58575Y342228D02*
D03*
X56606Y338291D02*
D03*
X58575Y334354D02*
D03*
X56606Y330417D02*
D03*
X54638Y350102D02*
D03*
X52669Y346165D02*
D03*
X54638Y342228D02*
D03*
X52669Y338291D02*
D03*
X54638Y334354D02*
D03*
X52669Y330417D02*
D03*
X124417Y247417D02*
D03*
X92417Y250417D02*
D03*
Y254417D02*
D03*
X83417Y250417D02*
D03*
Y254417D02*
D03*
X65417Y256417D02*
D03*
X68417Y261417D02*
D03*
X65417D02*
D03*
X61417Y244417D02*
D03*
Y249417D02*
D03*
Y253417D02*
D03*
Y258417D02*
D03*
Y262417D02*
D03*
X68417Y226417D02*
D03*
X64417Y227417D02*
D03*
X58417D02*
D03*
X53417D02*
D03*
X60417Y234417D02*
D03*
X54417Y235417D02*
D03*
X68417Y220417D02*
D03*
X62417D02*
D03*
X53417D02*
D03*
X78417Y186417D02*
D03*
X77417Y193417D02*
D03*
X78417Y198417D02*
D03*
Y201417D02*
D03*
X78631Y207658D02*
D03*
X196404Y43116D02*
D03*
X192417Y43417D02*
D03*
X196417Y46417D02*
D03*
X192417D02*
D03*
X184417Y4417D02*
D03*
Y7417D02*
D03*
X147417Y4417D02*
D03*
X151417D02*
D03*
X155417D02*
D03*
X159417D02*
D03*
X159598Y7340D02*
D03*
X155417Y7417D02*
D03*
X151417D02*
D03*
X147417D02*
D03*
X183243Y12417D02*
D03*
X178417Y20417D02*
D03*
Y17417D02*
D03*
X173417D02*
D03*
X168417D02*
D03*
X173417Y20417D02*
D03*
X168417D02*
D03*
X163417Y17417D02*
D03*
Y20417D02*
D03*
X38417Y195417D02*
D03*
X37417Y206417D02*
D03*
X31417Y213417D02*
D03*
X39417Y214417D02*
D03*
X40417Y230417D02*
D03*
X25417D02*
D03*
X18417Y229417D02*
D03*
Y218417D02*
D03*
Y210417D02*
D03*
X24417Y209417D02*
D03*
Y202417D02*
D03*
X28417Y192417D02*
D03*
X40417Y186417D02*
D03*
X28417Y183417D02*
D03*
X44417Y170417D02*
D03*
X36758Y163921D02*
D03*
X25153D02*
D03*
X16417Y165417D02*
D03*
X15417Y172417D02*
D03*
X16417Y177417D02*
D03*
X24417Y151417D02*
D03*
X21417Y150417D02*
D03*
X17417Y151417D02*
D03*
X14417D02*
D03*
X22417Y70417D02*
D03*
X45417Y45417D02*
D03*
Y53417D02*
D03*
Y62417D02*
D03*
Y68417D02*
D03*
X22417Y63417D02*
D03*
X23417Y44417D02*
D03*
X49417Y29417D02*
D03*
X49597Y20543D02*
D03*
X41870D02*
D03*
X34417Y20417D02*
D03*
X24903Y20543D02*
D03*
X17007D02*
D03*
X17417Y34417D02*
D03*
X93417Y27417D02*
D03*
Y32417D02*
D03*
X139417Y146417D02*
D03*
X125417Y145417D02*
D03*
D118*
X49417Y115417D02*
D03*
X57417Y122417D02*
D03*
X57386Y126134D02*
D03*
X48417Y93417D02*
D03*
Y97417D02*
D03*
X44417Y93417D02*
D03*
X150417Y129094D02*
D03*
X144417Y145417D02*
D03*
X120417Y135417D02*
D03*
X121417Y131417D02*
D03*
X150417Y145417D02*
D03*
X120417Y115417D02*
D03*
X115417Y122417D02*
D03*
X119417Y104417D02*
D03*
X81417Y132417D02*
D03*
X82417Y136417D02*
D03*
X89417D02*
D03*
X98417Y138417D02*
D03*
X94417D02*
D03*
Y134417D02*
D03*
X98417D02*
D03*
Y130417D02*
D03*
X94417D02*
D03*
X90417Y157417D02*
D03*
Y150417D02*
D03*
X75417Y79417D02*
D03*
X52417D02*
D03*
X57417D02*
D03*
X62417D02*
D03*
X68417D02*
D03*
Y74417D02*
D03*
X75417D02*
D03*
Y68417D02*
D03*
X68417D02*
D03*
Y62417D02*
D03*
X75417D02*
D03*
X60105Y126134D02*
D03*
X49417Y112417D02*
D03*
Y107417D02*
D03*
Y102417D02*
D03*
X44417Y148417D02*
D03*
Y141417D02*
D03*
X18417Y99417D02*
D03*
X13417D02*
D03*
X8417D02*
D03*
M02*
