G04*
G04 #@! TF.GenerationSoftware,Altium Limited,Altium Designer,23.11.1 (41)*
G04*
G04 Layer_Color=32896*
%FSLAX25Y25*%
%MOIN*%
G70*
G04*
G04 #@! TF.SameCoordinates,8D3607F6-0EDD-4B5D-BFDE-71B222FAF683*
G04*
G04*
G04 #@! TF.FilePolarity,Positive*
G04*
G01*
G75*
%ADD10C,0.00787*%
%ADD11C,0.01181*%
%ADD12C,0.01000*%
%ADD13C,0.00394*%
%ADD18C,0.00197*%
D10*
X37575Y300480D02*
Y308354D01*
X33542Y304421D02*
X41416D01*
X15921Y282764D02*
X59228D01*
X15921D02*
Y326071D01*
X59228D01*
Y282764D02*
Y326071D01*
X48291Y330795D02*
Y378039D01*
X22701Y330795D02*
X48291D01*
X22701D02*
Y378039D01*
X48291D01*
X40417Y350480D02*
Y358354D01*
X36480Y354417D02*
X44354D01*
X235902Y119142D02*
X237870D01*
X236886Y118157D02*
Y120126D01*
X233933Y100441D02*
X251650D01*
X233933D02*
Y137843D01*
X253618D01*
Y100441D02*
Y137843D01*
X251650Y100441D02*
X253618D01*
X118063Y46472D02*
X123969D01*
X121016Y43520D02*
Y49425D01*
X159598Y5134D02*
Y85055D01*
X82433D02*
X159598D01*
X82433Y5134D02*
Y85055D01*
Y5134D02*
X159598D01*
X293248Y59984D02*
X329666D01*
X293248D02*
Y98370D01*
X329666Y59984D02*
Y98370D01*
X293248D02*
X329666D01*
X293248D02*
X329666D01*
X293248Y59984D02*
X329666D01*
X293248D02*
Y98370D01*
X329666Y59984D02*
Y98370D01*
X308012Y79669D02*
X315886D01*
X311949Y75732D02*
Y83606D01*
X65480Y146417D02*
X69417D01*
X67449Y144449D02*
Y148386D01*
X54654Y130669D02*
Y162165D01*
Y130669D02*
X80244D01*
Y162165D01*
X54654D02*
X80244D01*
X207465Y72417D02*
X213370D01*
X210404Y69428D02*
Y75333D01*
X205496Y98992D02*
X255693D01*
X205496Y45842D02*
Y98992D01*
Y45842D02*
X255693D01*
Y98992D01*
X32197Y10417D02*
X36921D01*
X34559Y8055D02*
Y12779D01*
X13693Y15929D02*
X55425D01*
X13693Y1756D02*
Y15929D01*
Y1756D02*
X55425D01*
Y15929D01*
X200575Y169480D02*
Y177354D01*
X196733Y173414D02*
X204607D01*
X178921Y195071D02*
X222228D01*
Y151764D02*
Y195071D01*
X178921Y151764D02*
X222228D01*
X178921D02*
Y195071D01*
X207126Y257378D02*
Y304622D01*
X232716D01*
Y257378D02*
Y304622D01*
X207126Y257378D02*
X232716D01*
X215000Y277063D02*
Y284937D01*
X211063Y281000D02*
X218937D01*
X207126Y308378D02*
Y355622D01*
X232716D01*
Y308378D02*
Y355622D01*
X207126Y308378D02*
X232716D01*
X215000Y328063D02*
Y335937D01*
X211063Y332000D02*
X218937D01*
X203465Y23260D02*
X209370D01*
X206417Y20307D02*
Y26213D01*
X37417Y255480D02*
Y263354D01*
X33385Y259421D02*
X41259D01*
X15764Y237764D02*
X59071D01*
X15764D02*
Y281071D01*
X59071D01*
Y237764D02*
Y281071D01*
X63480Y108417D02*
X71354D01*
X67417Y104480D02*
Y112354D01*
X83165Y90701D02*
Y126134D01*
X51669Y90701D02*
X83165D01*
X51669D02*
Y126134D01*
X83165D01*
D11*
X200394Y257283D02*
Y365551D01*
X72441Y257283D02*
Y365551D01*
X200394D01*
X72441Y257283D02*
X200394D01*
X130512Y311417D02*
X142323D01*
X136417Y305512D02*
Y317323D01*
X2425Y230850D02*
X75260D01*
Y163921D02*
Y230850D01*
X457Y163921D02*
X75260D01*
X457D02*
Y230850D01*
X2425D01*
X38350Y197976D02*
X42287D01*
X40319Y196008D02*
Y199945D01*
X3425Y88850D02*
X76260D01*
Y21921D02*
Y88850D01*
X1457Y21921D02*
X76260D01*
X1457D02*
Y88850D01*
X3425D01*
X39350Y55976D02*
X43287D01*
X41319Y54008D02*
Y57945D01*
X140417Y383496D02*
Y393339D01*
X135496Y388417D02*
X145339D01*
X68272Y408004D02*
X212465D01*
X212366Y368732D02*
X212465Y408004D01*
X68173Y368732D02*
X212366D01*
X68173D02*
X68272Y408004D01*
D12*
X226347Y23260D02*
G03*
X226347Y23260I-19930J0D01*
G01*
D13*
X13902Y107465D02*
Y109433D01*
X12917Y108449D02*
X14886D01*
X7012Y115339D02*
X20791D01*
X7012Y101559D02*
Y115339D01*
Y101559D02*
X20791D01*
Y115339D01*
X114024Y143204D02*
X115598D01*
X114811Y142417D02*
Y143992D01*
X120323Y140842D02*
Y145567D01*
X109299D02*
X120323D01*
X109299Y140842D02*
Y145567D01*
Y140842D02*
X120323D01*
X114024Y150204D02*
X115598D01*
X114811Y149417D02*
Y150992D01*
X120323Y147842D02*
Y152567D01*
X109299D02*
X120323D01*
X109299Y147842D02*
Y152567D01*
Y147842D02*
X120323D01*
X114024Y157204D02*
X115598D01*
X114811Y156417D02*
Y157992D01*
X120323Y154842D02*
Y159567D01*
X109299D02*
X120323D01*
X109299Y154842D02*
Y159567D01*
Y154842D02*
X120323D01*
X123732Y86730D02*
Y126100D01*
X163102D01*
X123732Y86730D02*
X163102D01*
X143417Y104446D02*
Y108383D01*
X141449Y106415D02*
X145386D01*
X163102Y86730D02*
Y126100D01*
X178705Y81949D02*
Y85886D01*
X176736Y83917D02*
X180673D01*
X193468Y74075D02*
Y93760D01*
X163941Y74075D02*
X193468D01*
X163941D02*
Y93760D01*
X193468D01*
X200417Y79480D02*
Y81055D01*
X199630Y80268D02*
X201205D01*
X198055Y85780D02*
X202780D01*
X198055Y74756D02*
Y85780D01*
Y74756D02*
X202780D01*
Y85780D01*
X311213Y46000D02*
X312787D01*
X312000Y45213D02*
Y46787D01*
X317512Y43638D02*
Y48362D01*
X306488D02*
X317512D01*
X306488Y43638D02*
Y48362D01*
Y43638D02*
X317512D01*
X311162Y24669D02*
X312737D01*
X311949Y23881D02*
Y25456D01*
X306437Y22307D02*
Y27031D01*
Y22307D02*
X317461D01*
Y27031D01*
X306437D02*
X317461D01*
X161181Y164732D02*
Y204496D01*
X81653D02*
X161181D01*
X81653Y163945D02*
Y204496D01*
X161181Y163945D02*
Y164732D01*
X81653Y163945D02*
X161181D01*
X121417Y180480D02*
Y188354D01*
X117480Y184417D02*
X125354D01*
X223181Y207732D02*
Y247496D01*
X143654D02*
X223181D01*
X143654Y206945D02*
Y247496D01*
X223181Y206945D02*
Y207732D01*
X143654Y206945D02*
X223181D01*
X183417Y223480D02*
Y231354D01*
X179480Y227417D02*
X187354D01*
X238559Y152969D02*
Y183677D01*
X258244D01*
Y152969D02*
Y183677D01*
X238559Y152969D02*
X258244D01*
X243677Y168323D02*
X248402D01*
X246039Y165961D02*
Y170685D01*
X28559Y95185D02*
Y124713D01*
Y95185D02*
X48244D01*
Y124713D01*
X28559D02*
X48244D01*
X38402Y107980D02*
Y111917D01*
X36433Y109949D02*
X40370D01*
X217905Y118417D02*
X219480D01*
X218693Y117630D02*
Y119205D01*
X211606Y112118D02*
X225780D01*
X211606D02*
Y124716D01*
X225780D01*
Y112118D02*
Y124716D01*
X177654Y150260D02*
X207181D01*
X177654Y130575D02*
Y150260D01*
Y130575D02*
X207181D01*
Y150260D01*
X190449Y140417D02*
X194386D01*
X192417Y138449D02*
Y142386D01*
X99331Y118547D02*
X113504D01*
Y97287D02*
Y118547D01*
X99331Y97287D02*
X113504D01*
X99331D02*
Y118547D01*
X105236Y107917D02*
X107598D01*
X106417Y106736D02*
Y109098D01*
X155118Y134118D02*
X167717D01*
Y146716D01*
X155118Y134118D02*
Y146716D01*
X167717D01*
X161417Y139630D02*
Y141205D01*
X160630Y140417D02*
X162205D01*
X224118Y191118D02*
X236717D01*
Y203716D01*
X224118Y191118D02*
Y203716D01*
X236717D01*
X230417Y196630D02*
Y198205D01*
X229630Y197417D02*
X231205D01*
X181630Y64417D02*
X183205D01*
X182417Y63630D02*
Y65205D01*
X176118Y58118D02*
X188716D01*
Y70717D01*
X176118Y58118D02*
Y70717D01*
X188716D01*
X167630Y29138D02*
X169205D01*
X168417Y28350D02*
Y29925D01*
X162118Y22839D02*
X174716D01*
Y35437D01*
X162118Y22839D02*
Y35437D01*
X174716D01*
X305650Y29331D02*
X318248D01*
Y41929D01*
X305650Y29331D02*
Y41929D01*
X318248D01*
X311949Y34843D02*
Y36417D01*
X311162Y35630D02*
X312737D01*
X128630Y150417D02*
X130205D01*
X129417Y149630D02*
Y151205D01*
X123906Y148055D02*
Y152779D01*
Y148055D02*
X134929D01*
Y152779D01*
X123906D02*
X134929D01*
X224055Y163055D02*
Y174079D01*
X228780D01*
Y163055D02*
Y174079D01*
X224055Y163055D02*
X228780D01*
X225630Y168567D02*
X227205D01*
X226417Y167780D02*
Y169354D01*
X141630Y150417D02*
X143205D01*
X142417Y149630D02*
Y151205D01*
X147929Y148055D02*
Y152779D01*
X136906D02*
X147929D01*
X136906Y148055D02*
Y152779D01*
Y148055D02*
X147929D01*
X228780Y175756D02*
Y186779D01*
X224055Y175756D02*
X228780D01*
X224055D02*
Y186779D01*
X228780D01*
X225630Y181268D02*
X227205D01*
X226417Y180480D02*
Y182055D01*
X162756Y44055D02*
X173779D01*
X162756D02*
Y48779D01*
X173779D01*
Y44055D02*
Y48779D01*
X168268Y45630D02*
Y47205D01*
X167480Y46417D02*
X169055D01*
X138417Y136630D02*
Y138205D01*
X137630Y137417D02*
X139205D01*
X136055Y142929D02*
X140779D01*
X136055Y131905D02*
Y142929D01*
Y131905D02*
X140779D01*
Y142929D01*
X150417Y136630D02*
Y138205D01*
X149630Y137417D02*
X151205D01*
X148055Y142929D02*
X152779D01*
X148055Y131905D02*
Y142929D01*
Y131905D02*
X152779D01*
Y142929D01*
X201630Y114417D02*
X203205D01*
X202417Y113630D02*
Y115205D01*
X196906Y112055D02*
Y116779D01*
Y112055D02*
X207929D01*
Y116779D01*
X196906D02*
X207929D01*
X144417Y136630D02*
Y138205D01*
X143630Y137417D02*
X145205D01*
X142055Y142929D02*
X146780D01*
X142055Y131905D02*
Y142929D01*
Y131905D02*
X146780D01*
Y142929D01*
X201630Y122417D02*
X203205D01*
X202417Y121630D02*
Y123205D01*
X196906Y120055D02*
Y124779D01*
Y120055D02*
X207929D01*
Y124779D01*
X196906D02*
X207929D01*
X165905Y101055D02*
X176929D01*
X165905D02*
Y105780D01*
X176929D01*
Y101055D02*
Y105780D01*
X171417Y102630D02*
Y104205D01*
X170630Y103417D02*
X172205D01*
X109496Y135489D02*
X111071D01*
X110283Y134702D02*
Y136277D01*
X104772Y133127D02*
Y137852D01*
Y133127D02*
X115795D01*
Y137852D01*
X104772D02*
X115795D01*
X229780Y145756D02*
Y156780D01*
X225055Y145756D02*
X229780D01*
X225055D02*
Y156780D01*
X229780D01*
X226630Y151268D02*
X228205D01*
X227417Y150480D02*
Y152055D01*
X178638Y16488D02*
Y27512D01*
X183362D01*
Y16488D02*
Y27512D01*
X178638Y16488D02*
X183362D01*
X180213Y22000D02*
X181787D01*
X181000Y21213D02*
Y22787D01*
X230055Y160055D02*
Y171079D01*
X234780D01*
Y160055D02*
Y171079D01*
X230055Y160055D02*
X234780D01*
X231630Y165567D02*
X233205D01*
X232417Y164779D02*
Y166354D01*
X194780Y59905D02*
Y70929D01*
X190055Y59905D02*
X194780D01*
X190055D02*
Y70929D01*
X194780D01*
X191630Y65417D02*
X193205D01*
X192417Y64630D02*
Y66205D01*
X162756Y37055D02*
X173779D01*
X162756D02*
Y41780D01*
X173779D01*
Y37055D02*
Y41780D01*
X168268Y38630D02*
Y40205D01*
X167480Y39417D02*
X169055D01*
X162756Y59780D02*
X173779D01*
Y55055D02*
Y59780D01*
X162756Y55055D02*
X173779D01*
X162756D02*
Y59780D01*
X168268Y56630D02*
Y58205D01*
X167480Y57417D02*
X169055D01*
X162756Y71780D02*
X173779D01*
Y67055D02*
Y71780D01*
X162756Y67055D02*
X173779D01*
X162756D02*
Y71780D01*
X168268Y68630D02*
Y70205D01*
X167480Y69417D02*
X169055D01*
X162756Y65780D02*
X173779D01*
Y61055D02*
Y65780D01*
X162756Y61055D02*
X173779D01*
X162756D02*
Y65780D01*
X168268Y62630D02*
Y64205D01*
X167480Y63417D02*
X169055D01*
X215465Y138252D02*
X221370D01*
Y150063D01*
X215465D02*
X221370D01*
X215465Y138252D02*
Y150063D01*
X218417Y143173D02*
Y145142D01*
X217433Y144158D02*
X219402D01*
X208465Y138512D02*
X214370D01*
Y150323D01*
X208465D02*
X214370D01*
X208465Y138512D02*
Y150323D01*
X211417Y143433D02*
Y145402D01*
X210433Y144417D02*
X212402D01*
X199433Y94157D02*
X201402D01*
X200417Y93173D02*
Y95142D01*
X197465Y88252D02*
Y100063D01*
X203370D01*
Y88252D02*
Y100063D01*
X197465Y88252D02*
X203370D01*
X182512Y94465D02*
Y100370D01*
Y94465D02*
X194323D01*
Y100370D01*
X182512D02*
X194323D01*
X187433Y97417D02*
X189402D01*
X188417Y96433D02*
Y98402D01*
X168291Y151598D02*
Y153567D01*
X152543D02*
X168291D01*
X152543Y147268D02*
Y153567D01*
Y147268D02*
X168291D01*
Y151598D01*
X160417Y149630D02*
Y151205D01*
X159630Y150417D02*
X161205D01*
X208780Y201598D02*
Y203567D01*
X193032D02*
X208780D01*
X193032Y197268D02*
Y203567D01*
Y197268D02*
X208780D01*
Y201598D01*
X200905Y199630D02*
Y201205D01*
X200118Y200417D02*
X201693D01*
X64268Y248780D02*
X66236D01*
X64268Y233032D02*
Y248780D01*
Y233032D02*
X70567D01*
Y248780D01*
X66236D02*
X70567D01*
X66630Y240905D02*
X68205D01*
X67417Y240118D02*
Y241693D01*
X17171Y134264D02*
X21108D01*
X19139Y132295D02*
Y136232D01*
X26226Y120878D02*
Y147649D01*
X12053Y120878D02*
X26226D01*
X12053Y147649D02*
X26226D01*
X12053Y120878D02*
Y147649D01*
X217630Y104417D02*
X219205D01*
X218417Y103630D02*
Y105205D01*
X226291Y101268D02*
Y105598D01*
X210543Y101268D02*
X226291D01*
X210543D02*
Y107567D01*
X226291D01*
Y105598D02*
Y107567D01*
X174598Y130543D02*
X176567D01*
Y146291D01*
X170268D02*
X176567D01*
X170268Y130543D02*
Y146291D01*
Y130543D02*
X174598D01*
X172630Y138417D02*
X174205D01*
X173417Y137630D02*
Y139205D01*
X71874Y232886D02*
X79059D01*
X78961Y254047D02*
X79059Y232886D01*
X71874Y254047D02*
X78961D01*
X71874Y232886D02*
Y254047D01*
X75417Y241941D02*
Y244894D01*
X73941Y243417D02*
X76894D01*
X82276Y213732D02*
X114559Y213732D01*
X82276Y213732D02*
X82276Y253102D01*
X114559Y253102D01*
X114559Y213732D02*
X114559Y253102D01*
X98403Y231055D02*
X98417D01*
Y231449D02*
Y235386D01*
X96449Y233417D02*
X100386D01*
X24902Y107661D02*
Y109236D01*
X24114Y108449D02*
X25689D01*
X22539Y102937D02*
X27264D01*
Y113961D01*
X22539D02*
X27264D01*
X22539Y102937D02*
Y113961D01*
X44307Y133496D02*
Y139402D01*
X32496D02*
X44307D01*
X32496Y133496D02*
Y139402D01*
Y133496D02*
X44307D01*
X37417Y136449D02*
X39386D01*
X38402Y135465D02*
Y137433D01*
X44307Y126496D02*
Y132402D01*
X32496D02*
X44307D01*
X32496Y126496D02*
Y132402D01*
Y126496D02*
X44307D01*
X37417Y129449D02*
X39386D01*
X38402Y128465D02*
Y130433D01*
X203417Y104433D02*
Y106402D01*
X202433Y105417D02*
X204402D01*
X197512Y108370D02*
X209323D01*
Y102465D02*
Y108370D01*
X197512Y102465D02*
X209323D01*
X197512D02*
Y108370D01*
X231591Y34520D02*
X233559D01*
X232575Y33535D02*
Y35504D01*
X229622Y28614D02*
Y40425D01*
X235528D01*
Y28614D02*
Y40425D01*
X229622Y28614D02*
X235528D01*
X239591Y34520D02*
X241559D01*
X240575Y33535D02*
Y35504D01*
X237622Y28614D02*
Y40425D01*
X243528D01*
Y28614D02*
Y40425D01*
X237622Y28614D02*
X243528D01*
X247590Y34520D02*
X249559D01*
X248575Y33535D02*
Y35504D01*
X245622Y28614D02*
Y40425D01*
X251528D01*
Y28614D02*
Y40425D01*
X245622Y28614D02*
X251528D01*
X46996Y132272D02*
X52902D01*
Y144083D01*
X46996D02*
X52902D01*
X46996Y132272D02*
Y144083D01*
X49949Y137193D02*
Y139161D01*
X48965Y138177D02*
X50933D01*
X49949Y151130D02*
Y152705D01*
X49161Y151917D02*
X50736D01*
X47587Y157429D02*
X52311D01*
X47587Y146405D02*
Y157429D01*
Y146405D02*
X52311D01*
Y157429D01*
X85465Y122252D02*
X91370D01*
Y134063D01*
X85465D02*
X91370D01*
X85465Y122252D02*
Y134063D01*
X88417Y127173D02*
Y129142D01*
X87433Y128157D02*
X89402D01*
X81465Y150063D02*
X87370D01*
X81465Y138252D02*
Y150063D01*
Y138252D02*
X87370D01*
Y150063D01*
X84417Y143173D02*
Y145142D01*
X83433Y144158D02*
X85402D01*
X134323Y133465D02*
Y139370D01*
X122512D02*
X134323D01*
X122512Y133465D02*
Y139370D01*
Y133465D02*
X134323D01*
X127433Y136417D02*
X129402D01*
X128417Y135433D02*
Y137402D01*
X169465Y114252D02*
X175370D01*
Y126063D01*
X169465D02*
X175370D01*
X169465Y114252D02*
Y126063D01*
X172417Y119173D02*
Y121142D01*
X171433Y120158D02*
X173402D01*
X159417Y85630D02*
Y87205D01*
X158630Y86417D02*
X160205D01*
X157055Y80905D02*
X161779D01*
Y91929D01*
X157055D02*
X161779D01*
X157055Y80905D02*
Y91929D01*
X120417Y121780D02*
Y123354D01*
X119630Y122567D02*
X121205D01*
X118055Y128079D02*
X122780D01*
X118055Y117055D02*
Y128079D01*
Y117055D02*
X122780D01*
Y128079D01*
X166417Y118780D02*
Y120354D01*
X165630Y119567D02*
X167205D01*
X164055Y114055D02*
X168780D01*
Y125079D01*
X164055D02*
X168780D01*
X164055Y114055D02*
Y125079D01*
X128630Y130417D02*
X130205D01*
X129417Y129630D02*
Y131205D01*
X134929Y128055D02*
Y132780D01*
X123906D02*
X134929D01*
X123906Y128055D02*
Y132780D01*
Y128055D02*
X134929D01*
X101480Y121417D02*
X103055D01*
X102268Y120630D02*
Y122205D01*
X96756Y119055D02*
Y123779D01*
Y119055D02*
X107780D01*
Y123779D01*
X96756D02*
X107780D01*
X100480Y93031D02*
X102055D01*
X101268Y92244D02*
Y93818D01*
X95756Y90669D02*
Y95393D01*
Y90669D02*
X106780D01*
Y95393D01*
X95756D02*
X106780D01*
X104772Y125465D02*
Y131370D01*
Y125465D02*
X116583D01*
Y131370D01*
X104772D02*
X116583D01*
X109693Y128417D02*
X111661D01*
X110677Y127433D02*
Y129402D01*
X170433Y9677D02*
X172402D01*
X171417Y8693D02*
Y10661D01*
X168465Y3772D02*
Y15583D01*
X174370D01*
Y3772D02*
Y15583D01*
X168465Y3772D02*
X174370D01*
X177433Y9677D02*
X179402D01*
X178417Y8693D02*
Y10661D01*
X175465Y3772D02*
Y15583D01*
X181370D01*
Y3772D02*
Y15583D01*
X175465Y3772D02*
X181370D01*
X163433Y9417D02*
X165402D01*
X164417Y8433D02*
Y10402D01*
X161465Y3512D02*
Y15323D01*
X167370D01*
Y3512D02*
Y15323D01*
X161465Y3512D02*
X167370D01*
X189417Y51433D02*
Y53402D01*
X188433Y52417D02*
X190402D01*
X183512Y55370D02*
X195323D01*
Y49465D02*
Y55370D01*
X183512Y49465D02*
X195323D01*
X183512D02*
Y55370D01*
D18*
X98630Y156614D02*
Y157795D01*
X98039Y157204D02*
X99221D01*
X92626Y154153D02*
Y160354D01*
X104634D01*
Y154153D02*
Y160354D01*
X92626Y154153D02*
X104634D01*
X171252Y147236D02*
X175583D01*
X171252D02*
Y153929D01*
X175583D01*
Y147236D02*
Y153929D01*
X172925Y150583D02*
X173909D01*
X173417Y150091D02*
Y151075D01*
X98630Y142614D02*
Y143795D01*
X98039Y143204D02*
X99221D01*
X92626Y140153D02*
Y146354D01*
X104634D01*
Y140153D02*
Y146354D01*
X92626Y140153D02*
X104634D01*
X98630Y149614D02*
Y150795D01*
X98039Y150204D02*
X99221D01*
X92626Y147153D02*
Y153354D01*
X104634D01*
Y147153D02*
Y153354D01*
X92626Y147153D02*
X104634D01*
X312000Y52409D02*
Y53591D01*
X311409Y53000D02*
X312591D01*
X305996Y49949D02*
Y56150D01*
X318004D01*
Y49949D02*
Y56150D01*
X305996Y49949D02*
X318004D01*
M02*
