G04*
G04 #@! TF.GenerationSoftware,Altium Limited,Altium Designer,23.11.1 (41)*
G04*
G04 Layer_Color=32768*
%FSLAX25Y25*%
%MOIN*%
G70*
G04*
G04 #@! TF.SameCoordinates,8D3607F6-0EDD-4B5D-BFDE-71B222FAF683*
G04*
G04*
G04 #@! TF.FilePolarity,Positive*
G04*
G01*
G75*
%ADD10C,0.00787*%
%ADD13C,0.00394*%
%ADD18C,0.00197*%
D10*
X273071Y60339D02*
X306929D01*
X273071Y36716D02*
Y60339D01*
Y36716D02*
X306929D01*
Y60339D01*
X356488Y15181D02*
X370661D01*
Y56913D01*
X356488D02*
X370661D01*
X356488Y15181D02*
Y56913D01*
D13*
X280848Y69253D02*
Y72796D01*
X274155Y69253D02*
X280848D01*
X274155D02*
Y72796D01*
X280848D01*
X280936Y29946D02*
Y33489D01*
X274243Y29946D02*
X280936D01*
X274243D02*
Y33489D01*
X280936D01*
X274155Y75253D02*
Y78796D01*
X280848D01*
Y75253D02*
Y78796D01*
X274155Y75253D02*
X280848D01*
X280967Y19221D02*
X284511D01*
X280967D02*
Y25914D01*
X284511D01*
Y19221D02*
Y25914D01*
X293848Y63253D02*
Y66796D01*
X287156Y63253D02*
X293848D01*
X287156D02*
Y66796D01*
X293848D01*
X286967Y19221D02*
X290511D01*
X286967D02*
Y25914D01*
X290511D01*
Y19221D02*
Y25914D01*
X298936Y95946D02*
Y99489D01*
X292243Y95946D02*
X298936D01*
X292243D02*
Y99489D01*
X298936D01*
X306998Y63253D02*
Y66796D01*
X300305Y63253D02*
X306998D01*
X300305D02*
Y66796D01*
X306998D01*
X300968Y19221D02*
X304511D01*
X300968D02*
Y25914D01*
X304511D01*
Y19221D02*
Y25914D01*
X351113Y83946D02*
Y87489D01*
X357806D01*
Y83946D02*
Y87489D01*
X351113Y83946D02*
X357806D01*
Y71946D02*
Y75489D01*
X351113Y71946D02*
X357806D01*
X351113D02*
Y75489D01*
X357806D01*
X351113Y77946D02*
Y81489D01*
X357806D01*
Y77946D02*
Y81489D01*
X351113Y77946D02*
X357806D01*
X327936Y58946D02*
Y62489D01*
X321243Y58946D02*
X327936D01*
X321243D02*
Y62489D01*
X327936D01*
X332834Y44812D02*
X344645D01*
Y56623D01*
X332834D02*
X344645D01*
X332834Y44812D02*
Y56623D01*
X274502Y66600D02*
X280801D01*
X274502Y63450D02*
Y66600D01*
Y63450D02*
X280801D01*
Y66600D01*
X272203Y80875D02*
X284801D01*
X272203D02*
Y87174D01*
X284801D01*
Y80875D02*
Y87174D01*
X278314Y19568D02*
Y25867D01*
X275164D02*
X278314D01*
X275164Y19568D02*
Y25867D01*
Y19568D02*
X278314D01*
X287352Y73599D02*
X293652D01*
X287352Y70450D02*
Y73599D01*
Y70450D02*
X293652D01*
Y73599D01*
X313440Y68292D02*
X319739D01*
X313440Y65143D02*
Y68292D01*
Y65143D02*
X319739D01*
Y68292D01*
X296889Y78418D02*
Y91017D01*
X290589Y78418D02*
X296889D01*
X290589D02*
Y91017D01*
X296889D01*
X267164Y46718D02*
Y53017D01*
Y46718D02*
X270314D01*
Y53017D01*
X267164D02*
X270314D01*
X265279Y30942D02*
X270200D01*
X265279D02*
Y39013D01*
X270200D01*
Y30942D02*
Y39013D01*
X300589Y72292D02*
X306889D01*
X300589Y69143D02*
Y72292D01*
Y69143D02*
X306889D01*
Y72292D01*
X347539Y26776D02*
X352461D01*
Y18705D02*
Y26776D01*
X347539Y18705D02*
X352461D01*
X347539D02*
Y26776D01*
X339539D02*
X344461D01*
Y18705D02*
Y26776D01*
X339539Y18705D02*
X344461D01*
X339539D02*
Y26776D01*
X331539D02*
X336461D01*
Y18705D02*
Y26776D01*
X331539Y18705D02*
X336461D01*
X331539D02*
Y26776D01*
X336590Y39143D02*
X342889D01*
Y42292D01*
X336590D02*
X342889D01*
X336590Y39143D02*
Y42292D01*
X358495Y64257D02*
Y69178D01*
X350424Y64257D02*
X358495D01*
X350424D02*
Y69178D01*
X358495D01*
X332704Y59257D02*
Y64178D01*
X340774D01*
Y59257D02*
Y64178D01*
X332704Y59257D02*
X340774D01*
D18*
X321889Y41320D02*
X321987Y54115D01*
X315589D02*
X321987D01*
X315589Y41320D02*
Y54115D01*
Y41320D02*
X321889D01*
X293180Y18682D02*
X298298D01*
Y26753D01*
X293180D02*
X298298D01*
X293180Y18682D02*
Y26753D01*
M02*
