M48
;Layer_Color=9474304
;FILE_FORMAT=2:5
INCH,LZ
;TYPE=PLATED
T01F00S00C0.01000
T02F00S00C0.01968
T03F00S00C0.03150
T04F00S00C0.03346
T05F00S00C0.03543
T06F00S00C0.03937
T09F00S00C0.05118
T10F00S00C0.06693
;TYPE=NON_PLATED
T11F00S00C0.08268
%
T01
X0017007Y0020543
X0024903
X0034417Y0020417
X004187Y0020543
X0049597
X0049417Y0029417
X0045417Y0045417
Y0053417
Y0062417
X0022417Y0063417
X0023417Y0044417
X0017417Y0034417
X0067417Y0004417
X00815Y0013
X0080417Y0036417
X0093417Y0032417
Y0027417
X0108417Y0025417
X0116142Y0029528
X0120079
X0124016
X013189
X0135827
X0139764
X0141732Y0033465
Y0041339
Y0049213
X0135827Y005315
X013189
X0127953
X0124016
X0120079
X0116142
Y0045276
Y0037402
X0120836Y0009417
X0147417Y0011417
X0150417
X0151417Y0007417
Y0004417
X0147417
Y0007417
X0155417
Y0004417
X0159417
X0159598Y000734
X0163417Y0017417
Y0020417
X0168417
Y0017417
X0173417
Y0020417
X0178417
Y0017417
X0183243Y0012417
X0184417Y0007417
Y0004417
X0183417Y0047417
X0186417
X0192417Y0046417
Y0043417
X0196404Y0043116
X0196417Y0046417
X0206693Y0045276
X021063
X0214567
X0218504
X0222441
X0220473Y0049213
X0216536
X0218504Y005315
X0222441
X0223805Y0059955
X0161417Y0057417
Y0063417
X0163417Y0051417
X0161417Y0032417
X0075417Y0062417
X0068417
X022441Y0049213
X0232284
X0236221
X0240158
X0244095
X0248032
X0246063Y005315
X025
Y0045276
X0246063
X0242126
X0238189
X0234252
X0230315
Y005315
X0234252
X0238189
X0242126
X0263Y0047
Y0043
Y0038
X0268Y0024
Y0019
Y0015
X0275
X028
X0286
X0303Y003
X0304Y0043
Y0047
X0309Y0059
X0311Y0062
X0333Y0067
X0351Y0061
X0347Y004
X0348Y0031
X0344
X034
X0336
X0331
X0326718Y0035
X0325Y0039
Y0043
X0333Y004
X032Y0032
X0352Y0031
X035Y0012
X0342
X0334
X025Y001378
X0246063
X0242126
X0238189
X0234252
X0230315
X0232284Y0017717
X0236221
X0240158
X0244095
X0248032
X0251969
X025Y0021654
X0246063
X0242126
X0238189
X0234252
X0230315
X0267Y0058
X0313Y0071
X0232417Y0124417
X0229417
Y0127382
Y0130417
X0232417
Y0127417
Y0139417
Y0143417
X0228417
X0224417
Y0139417
X0228417
X0232417Y0157417
X0225937Y01605
X0225417Y0188417
X0239417Y0193417
X0219417Y0136417
X0216417
X0213417
X0210417
X0199307Y0134188
X0198417Y0129417
X0183Y0127
X0177417Y0123417
X0177Y0119
Y0115
X0167417Y0126417
X0165417Y0132505
X0161417Y0133417
X0156417Y0132505
Y0127417
X0150417Y0129094
X0143417Y0130417
X0136417Y0127417
X01335Y01135
X01375Y0109
X01345Y0105
X0133Y01005
Y00955
X0138417Y0101417
X0142314Y0098314
X0146939Y0085055
X0160417Y0078417
X0161417Y0073417
X0163102Y0089109
X0173417Y0096417
X0180417Y0097417
X0192417Y0103417
X0195417Y0108417
X0211417Y0109417
X0215417
X0214417Y0100417
X0211417
X0208417
X0205417
X0195417Y0090417
X0196417Y0086417
X0194417Y0072417
X0200417Y0070417
X0203417Y0072417
X0178417
X0155417Y0113417
X0147417Y0118417
X0153918Y0136553
X0150417Y0145417
X0149417Y0148417
X0144417Y0145417
X0139417Y0146417
X0135417Y0144417
X0132417Y0141417
X0125417Y0145417
X0122417Y0146417
Y0152417
Y0159417
X0120417Y0135417
X0121417Y0131417
X0118893Y0129893
X0115417Y0122417
X0120417Y0115417
X0119417Y0104417
X0121417Y0101417
Y0095417
X0126417Y0087417
X0091417Y0091417
X0085417
Y0097417
Y0102417
X0091417
Y0097417
X0088417Y0120417
X0094417Y0121417
Y0130417
Y0134417
Y0138417
X0098417
Y0134417
Y0130417
X0102417Y0128417
Y0135417
X0089417Y0136417
X0082417
X0081417Y0132417
X0084417Y0151417
X0090417Y0150417
Y0157417
X0072417Y0164417
X0078417Y0186417
X0077417Y0193417
X0078417Y0198417
Y0201417
X0078631Y0207658
X0068417Y0220417
X01Y022
Y0216
Y0212
X0105
Y0216
X0117146Y0221146
X0075417Y0079417
Y0074417
Y0068417
X0068417
Y0074417
Y0079417
X021Y0118
X0219063Y0118417
X0057417Y0122417
X0057386Y0126134
X0060105
X0052417Y0129417
X0049417
X0046417
X0044417Y0141417
Y0148417
X0054654Y0156143
X0058199Y0154685
X0059417Y0164417
X0063417
X0067417
X0044417Y0170417
X0036758Y0163921
X0025153
X0016417Y0165417
X0015417Y0172417
X0016417Y0177417
X0028417Y0183417
Y0192417
X0038417Y0195417
X0040417Y0186417
X0037417Y0206417
X0039417Y0214417
X0031417Y0213417
X0024417Y0209417
X0018417Y0210417
Y0218417
X0024417Y0202417
X0053417Y0220417
X0062417
X0024417Y0151417
X0021417Y0150417
X0017417Y0151417
X0014417
X0013417Y0099417
X0018417
X0008417
X0015417Y0088417
X0016417Y0081417
X0015417Y0074417
X0022417Y0070417
X0045417Y0068417
Y0075417
Y0082417
Y0088417
X0044417Y0093417
X0048417
Y0097417
X0049417Y0102417
Y0107417
Y0112417
Y0115417
X0052417Y0079417
X0057417
X0062417
X0064417Y0227417
X0058417
X0053417
X0054417Y0235417
X0060417Y0234417
X0061417Y0244417
Y0249417
Y0253417
Y0258417
Y0262417
X0065417Y0261417
Y0256417
X0040417Y0230417
X0025417
X0018417Y0229417
X0052669Y0330417
X0056606
X0060543
X006448
X0066449Y0334354
X0062512
X0058575
X0054638
X0052669Y0338291
X0056606
X0060543
X006448
X0066449Y0342228
X0062512
X0058575
X0054638
X0052669Y0346165
X0056606
X0060543
X006448
X0066449Y0350102
X0062512
X0058575
X0054638
X005315Y0360237
X0057087
X0061024
X0064961
X0066929Y0364174
X0062992
X0059055
X0055118
X0051181
X005315Y036811
X0057087
X0061024
X0064961
X0066929Y0372047
X0062992
X0059055
X0055118
X0051181
X005315Y0375985
X0057087
X0061024
X0064961
X0066929Y0379922
X0062992
X0059055
X0055118
X0051181
X0047244
X0043307
X003937
X0035433
X0070866
X0074803
X0072835Y0375985
X0076772
X0074803Y0372047
X0070866
X0068898Y0375985
X0068417Y0346165
Y0338291
Y0330417
Y0261417
X0083417Y0254417
Y0250417
X0092417
Y0254417
X01185Y0253
X0119Y0258
X01245
X0124Y02525
X0124417Y0247417
X01245Y0242
X01295Y02415
X013Y0247
Y02525
X01305Y02575
X01185Y0247
X0119Y0242
X0124417Y0227417
X0068417Y0226417
X0190945Y0364174
X0194882
X0198819
X0202756
X0206693
X0208662Y036811
X0212599
X021063Y0372047
X0206693
X0202756
X0198819
X0194882
X0190945
X0192913Y0375985
X0196851
X0200788
X0204725
X0208662
X0212599
X0202756Y0379922
X0198819
X0194882
X0190945
X0192913Y036811
X0196851
X0200788
X0204725
X0200788Y0383858
X0196851
X0192913
X0190945Y0387795
X0194882
X0198819
X0202756
X0200788Y0391733
X0196851
X0192913
X0064961
X0061024
X0057087
X005315
X0049213
X0045276
X0041339
X0037402
X0033465
X0035433Y0387795
X003937
X0043307
X0047244
X0051181
X0055118
X0059055
X0062992
X0061024Y0383858
X0064961
X0057087
X005315
X0049213
X0045276
X0041339
X0037402
X0033465
T02
X0304469Y0086992
X0318524Y0087169
X0318681Y0072976
T03
X0206417Y0013417
Y0033102
X0210417Y0173417
X0190732
X004726Y0259417
X0027575
X0027732Y0304417
X0047417
T04
X0019795Y0010417
X0025701
X0031606
X0037512
X0043417
X0049323
X0362Y0021283
Y0027189
Y0033094
Y0039
Y0044905
Y0050811
T05
X0247417Y0162417
Y0174228
T06
X0116732Y0272047
X0156102
X0175787Y0350787
X0097047
X0071569Y0388417
X0209266
T09
X0086417Y0169417
X0116417
X0156417
Y0199417
X0148417Y0212417
X0178417
X0218417
X0096417Y0199417
X0158417Y0242417
X0218417
T10
X0040417Y0344417
Y0364417
X0215Y0342
Y0322
Y0291
Y0271
T11
X001622Y0055976
X0015221Y0197976
M30
