G04*
G04 #@! TF.GenerationSoftware,Altium Limited,Altium Designer,23.11.1 (41)*
G04*
G04 Layer_Color=16711935*
%FSLAX25Y25*%
%MOIN*%
G70*
G04*
G04 #@! TF.SameCoordinates,F81B5662-C64E-47A4-8FBC-E69FC3E7E543*
G04*
G04*
G04 #@! TF.FilePolarity,Positive*
G04*
G01*
G75*
%ADD10C,0.00787*%
%ADD13C,0.00394*%
%ADD18C,0.00197*%
D10*
X287638Y48528D02*
X292362D01*
X290000Y46165D02*
Y50890D01*
X307323Y35535D02*
Y61913D01*
X272284Y35535D02*
X307323D01*
X272284D02*
Y61913D01*
X307323D01*
X356488Y15181D02*
X370661D01*
Y56913D01*
X356488D02*
X370661D01*
X356488Y15181D02*
Y56913D01*
X359638Y36047D02*
X364362D01*
X362000Y33685D02*
Y38409D01*
D13*
X276714Y71025D02*
X278289D01*
X277502Y70237D02*
Y71812D01*
X283014Y68663D02*
Y73387D01*
X271990Y68663D02*
X283014D01*
X271990D02*
Y73387D01*
X283014D01*
X276802Y31718D02*
X278377D01*
X277590Y30930D02*
Y32505D01*
X283101Y29355D02*
Y34080D01*
X272078Y29355D02*
X283101D01*
X272078D02*
Y34080D01*
X283101D01*
X276714Y77025D02*
X278289D01*
X277502Y76237D02*
Y77812D01*
X271990Y74663D02*
Y79387D01*
X283014D01*
Y74663D02*
Y79387D01*
X271990Y74663D02*
X283014D01*
X282739Y21781D02*
Y23355D01*
X281952Y22568D02*
X283526D01*
X280377Y17056D02*
X285101D01*
X280377D02*
Y28080D01*
X285101D01*
Y17056D02*
Y28080D01*
X289715Y65025D02*
X291289D01*
X290502Y64237D02*
Y65812D01*
X296014Y62663D02*
Y67387D01*
X284990Y62663D02*
X296014D01*
X284990D02*
Y67387D01*
X296014D01*
X288739Y21781D02*
Y23355D01*
X287952Y22568D02*
X289527D01*
X286377Y17056D02*
X291101D01*
X286377D02*
Y28080D01*
X291101D01*
Y17056D02*
Y28080D01*
X294802Y97718D02*
X296377D01*
X295589Y96930D02*
Y98505D01*
X301101Y95355D02*
Y100080D01*
X290078Y95355D02*
X301101D01*
X290078D02*
Y100080D01*
X301101D01*
X302864Y65025D02*
X304439D01*
X303651Y64237D02*
Y65812D01*
X309163Y62663D02*
Y67387D01*
X298140Y62663D02*
X309163D01*
X298140D02*
Y67387D01*
X309163D01*
X302739Y21781D02*
Y23355D01*
X301952Y22568D02*
X303526D01*
X300377Y17056D02*
X305101D01*
X300377D02*
Y28080D01*
X305101D01*
Y17056D02*
Y28080D01*
X353672Y85718D02*
X355247D01*
X354460Y84930D02*
Y86505D01*
X348948Y83355D02*
Y88080D01*
X359971D01*
Y83355D02*
Y88080D01*
X348948Y83355D02*
X359971D01*
X353672Y73718D02*
X355247D01*
X354460Y72930D02*
Y74505D01*
X359971Y71355D02*
Y76080D01*
X348948Y71355D02*
X359971D01*
X348948D02*
Y76080D01*
X359971D01*
X353672Y79718D02*
X355247D01*
X354460Y78930D02*
Y80505D01*
X348948Y77355D02*
Y82080D01*
X359971D01*
Y77355D02*
Y82080D01*
X348948Y77355D02*
X359971D01*
X323802Y60718D02*
X325377D01*
X324589Y59930D02*
Y61505D01*
X330101Y58355D02*
Y63080D01*
X319078Y58355D02*
X330101D01*
X319078D02*
Y63080D01*
X330101D01*
X317853Y47718D02*
X319625D01*
X318739Y46832D02*
Y48603D01*
X322381Y39450D02*
Y55985D01*
X314999D02*
X322381D01*
X314999Y39450D02*
Y55985D01*
Y39450D02*
X322381D01*
X331259Y51899D02*
Y57017D01*
X346219D01*
Y44418D02*
Y57017D01*
X331259Y44418D02*
X346219D01*
X331259D02*
Y51899D01*
X337606Y50707D02*
X339968D01*
X338739Y49536D02*
Y51899D01*
X276864Y65025D02*
X278439D01*
X277652Y64237D02*
Y65812D01*
X283163Y62663D02*
Y67387D01*
X272140Y62663D02*
X283163D01*
X272140D02*
Y67387D01*
X283163D01*
X270234Y80088D02*
X286770D01*
X270234D02*
Y87962D01*
X286770D01*
Y80088D02*
Y87962D01*
X277321Y84025D02*
X279683D01*
X278502Y82844D02*
Y85206D01*
X276739Y21930D02*
Y23505D01*
X275952Y22718D02*
X277526D01*
X274377Y17206D02*
X279101D01*
X274377D02*
Y28229D01*
X279101D01*
Y17206D02*
Y28229D01*
X289715Y72025D02*
X291289D01*
X290502Y71237D02*
Y72812D01*
X296014Y69662D02*
Y74387D01*
X284990Y69662D02*
X296014D01*
X284990D02*
Y74387D01*
X296014D01*
X315802Y66718D02*
X317377D01*
X316589Y65930D02*
Y67505D01*
X322101Y64355D02*
Y69080D01*
X311078Y64355D02*
X322101D01*
X311078D02*
Y69080D01*
X322101D01*
X297676Y76450D02*
Y92985D01*
X289802Y76450D02*
X297676D01*
X289802D02*
Y92985D01*
X297676D01*
X293739Y83536D02*
Y85899D01*
X292558Y84718D02*
X294920D01*
X268739Y49080D02*
Y50655D01*
X267952Y49867D02*
X269527D01*
X266377Y55379D02*
X271101D01*
Y44355D02*
Y55379D01*
X266377Y44355D02*
X271101D01*
X266377D02*
Y55379D01*
X264786Y29072D02*
X270692D01*
X264786D02*
Y40883D01*
X270692D01*
Y29072D02*
Y40883D01*
X267739Y33993D02*
Y35962D01*
X266755Y34977D02*
X268723D01*
X302952Y70718D02*
X304526D01*
X303739Y69930D02*
Y71505D01*
X309251Y68355D02*
Y73080D01*
X298227Y68355D02*
X309251D01*
X298227D02*
Y73080D01*
X309251D01*
X347047Y28646D02*
X352953D01*
Y16835D02*
Y28646D01*
X347047Y16835D02*
X352953D01*
X347047D02*
Y28646D01*
X350000Y21756D02*
Y23724D01*
X349016Y22740D02*
X350984D01*
X339047Y28646D02*
X344953D01*
Y16835D02*
Y28646D01*
X339047Y16835D02*
X344953D01*
X339047D02*
Y28646D01*
X342000Y21756D02*
Y23724D01*
X341016Y22740D02*
X342984D01*
X331047Y28646D02*
X336953D01*
Y16835D02*
Y28646D01*
X331047Y16835D02*
X336953D01*
X331047D02*
Y28646D01*
X334000Y21756D02*
Y23724D01*
X333016Y22740D02*
X334984D01*
X338952Y40718D02*
X340527D01*
X339739Y39930D02*
Y41505D01*
X334227Y38355D02*
Y43080D01*
X345251D01*
Y38355D02*
Y43080D01*
X334227Y38355D02*
X345251D01*
X360365Y63765D02*
Y69670D01*
X348554Y63765D02*
X360365D01*
X348554D02*
Y69670D01*
X360365D01*
X353475Y66718D02*
X355444D01*
X354460Y65733D02*
Y67702D01*
X330834Y58765D02*
Y64670D01*
X342645D01*
Y58765D02*
Y64670D01*
X330834Y58765D02*
X342645D01*
X335755Y61718D02*
X337723D01*
X336739Y60733D02*
Y62702D01*
D18*
X295149Y22718D02*
X296330D01*
X295739Y22127D02*
Y23308D01*
X292688Y16714D02*
X298889D01*
Y28721D01*
X292688D02*
X298889D01*
X292688Y16714D02*
Y28721D01*
M02*
