G04*
G04 #@! TF.GenerationSoftware,Altium Limited,Altium Designer,23.11.1 (41)*
G04*
G04 Layer_Color=16711935*
%FSLAX25Y25*%
%MOIN*%
G70*
G04*
G04 #@! TF.SameCoordinates,F81B5662-C64E-47A4-8FBC-E69FC3E7E543*
G04*
G04*
G04 #@! TF.FilePolarity,Negative*
G04*
G01*
G75*
%ADD55R,0.04331X0.06102*%
%ADD56R,0.04134X0.04331*%
%ADD67R,0.04331X0.04134*%
%ADD79R,0.06102X0.04331*%
%ADD86C,0.06299*%
%ADD87C,0.12205*%
%ADD88C,0.10236*%
%ADD89C,0.04331*%
%ADD90C,0.00394*%
%ADD91C,0.09068*%
%ADD92O,0.08674X0.16548*%
%ADD93O,0.16548X0.08674*%
%ADD94O,0.07887X0.14973*%
%ADD95O,0.05118X0.06299*%
%ADD96O,0.06299X0.05118*%
%ADD97C,0.08268*%
%ADD98C,0.02375*%
%ADD139R,0.07087X0.04921*%
%ADD140R,0.02677X0.05039*%
%ADD141R,0.04724X0.02756*%
%ADD142R,0.04921X0.07480*%
%ADD143R,0.07480X0.04921*%
D55*
X350719Y66718D02*
D03*
X358200D02*
D03*
X340479Y61718D02*
D03*
X332999D02*
D03*
D56*
X274352Y71025D02*
D03*
X280651D02*
D03*
X274440Y31718D02*
D03*
X280739D02*
D03*
X280651Y77025D02*
D03*
X274352D02*
D03*
X287352Y65025D02*
D03*
X293652D02*
D03*
X292440Y97718D02*
D03*
X298739D02*
D03*
X300502Y65025D02*
D03*
X306801D02*
D03*
X357609Y85718D02*
D03*
X351310D02*
D03*
Y73718D02*
D03*
X357609D02*
D03*
Y79718D02*
D03*
X351310D02*
D03*
X321440Y60718D02*
D03*
X327739D02*
D03*
X274502Y65025D02*
D03*
X280801D02*
D03*
X287352Y72025D02*
D03*
X293652D02*
D03*
X313440Y66718D02*
D03*
X319739D02*
D03*
X300589Y70718D02*
D03*
X306889D02*
D03*
X342889Y40718D02*
D03*
X336590D02*
D03*
D67*
X282739Y25718D02*
D03*
Y19418D02*
D03*
X288739Y25718D02*
D03*
Y19418D02*
D03*
X302739Y25718D02*
D03*
Y19418D02*
D03*
X276739Y25867D02*
D03*
Y19568D02*
D03*
X268739Y46718D02*
D03*
Y53017D02*
D03*
D79*
X267739Y38718D02*
D03*
Y31237D02*
D03*
X350000Y19000D02*
D03*
Y26480D02*
D03*
X342000Y19000D02*
D03*
Y26480D02*
D03*
X334000Y19000D02*
D03*
Y26480D02*
D03*
X295739Y18977D02*
D03*
Y26458D02*
D03*
D86*
X47417Y304417D02*
D03*
X27732D02*
D03*
X116732Y272047D02*
D03*
X156102D02*
D03*
X97047Y350787D02*
D03*
X175787D02*
D03*
X71569Y388417D02*
D03*
X209266D02*
D03*
X190732Y173417D02*
D03*
X210417D02*
D03*
X47260Y259417D02*
D03*
X27575D02*
D03*
D87*
X40417Y364417D02*
D03*
Y344417D02*
D03*
X215000Y271000D02*
D03*
Y291000D02*
D03*
Y322000D02*
D03*
Y342000D02*
D03*
D88*
X96417Y199417D02*
D03*
X156417D02*
D03*
X86417Y169417D02*
D03*
X116417D02*
D03*
X156417D02*
D03*
X158417Y242417D02*
D03*
X218417D02*
D03*
X148417Y212417D02*
D03*
X178417D02*
D03*
X218417D02*
D03*
D89*
X318681Y72976D02*
D03*
X304469Y86992D02*
D03*
X318524Y87169D02*
D03*
D90*
X247417Y162417D02*
D03*
Y174228D02*
D03*
D91*
X15221Y197976D02*
D03*
X16220Y55976D02*
D03*
D92*
X32937Y197976D02*
D03*
X33937Y55976D02*
D03*
D93*
X45535Y179079D02*
D03*
X46535Y37079D02*
D03*
D94*
X57740Y202307D02*
D03*
X58740Y60307D02*
D03*
D95*
X49323Y10417D02*
D03*
X43417D02*
D03*
X37512D02*
D03*
X31606D02*
D03*
X25701D02*
D03*
X19795D02*
D03*
D96*
X362000Y50811D02*
D03*
Y44905D02*
D03*
Y39000D02*
D03*
Y33094D02*
D03*
Y27189D02*
D03*
Y21283D02*
D03*
D97*
X206417Y13417D02*
D03*
Y33102D02*
D03*
D98*
X81500Y13000D02*
D03*
X225937Y160500D02*
D03*
D139*
X318739Y42009D02*
D03*
Y53426D02*
D03*
D140*
X275000Y59000D02*
D03*
X280000D02*
D03*
X285000D02*
D03*
X290000D02*
D03*
X295000D02*
D03*
X300000D02*
D03*
X305000D02*
D03*
Y38055D02*
D03*
X300000D02*
D03*
X295000D02*
D03*
X290000D02*
D03*
X285000D02*
D03*
X280000D02*
D03*
X275000D02*
D03*
D141*
X343857Y54458D02*
D03*
Y46977D02*
D03*
X333621Y54458D02*
D03*
Y50718D02*
D03*
Y46977D02*
D03*
D142*
X272793Y84025D02*
D03*
X284211D02*
D03*
D143*
X293739Y79009D02*
D03*
Y90426D02*
D03*
M02*
