G04*
G04 #@! TF.GenerationSoftware,Altium Limited,Altium Designer,23.11.1 (41)*
G04*
G04 Layer_Physical_Order=2*
G04 Layer_Color=32768*
%FSLAX25Y25*%
%MOIN*%
G70*
G04*
G04 #@! TF.SameCoordinates,F81B5662-C64E-47A4-8FBC-E69FC3E7E543*
G04*
G04*
G04 #@! TF.FilePolarity,Negative*
G04*
G01*
G75*
%ADD10C,0.00787*%
%ADD109C,0.09843*%
%ADD119C,0.04000*%
%ADD120C,0.04724*%
%ADD121C,0.08268*%
%ADD122C,0.06693*%
%ADD123C,0.03543*%
%ADD124C,0.05118*%
%ADD125C,0.05512*%
%ADD126O,0.06299X0.07480*%
%ADD127C,0.04921*%
%ADD128C,0.02575*%
D10*
X259000Y2000D02*
Y106000D01*
X372000D01*
Y2000D02*
Y106000D01*
X259000Y2000D02*
X372000Y2000D01*
D109*
X15221Y197976D02*
D03*
X16220Y55976D02*
D03*
D119*
X0Y0D02*
Y413386D01*
X254000D01*
Y108268D02*
Y413386D01*
Y108268D02*
X374016D01*
Y0D02*
Y108268D01*
X0Y0D02*
X374016D01*
D120*
X47417Y304417D02*
D03*
X190732Y173417D02*
D03*
X206417Y13417D02*
D03*
Y33102D02*
D03*
X47260Y259417D02*
D03*
D121*
X40417Y364417D02*
D03*
Y344417D02*
D03*
X215000Y271000D02*
D03*
Y291000D02*
D03*
Y322000D02*
D03*
Y342000D02*
D03*
D122*
X96417Y199417D02*
D03*
X156417D02*
D03*
X86417Y169417D02*
D03*
X116417D02*
D03*
X156417D02*
D03*
X158417Y242417D02*
D03*
X218417D02*
D03*
X148417Y212417D02*
D03*
X178417D02*
D03*
X218417D02*
D03*
D123*
X318681Y72976D02*
D03*
X318524Y87169D02*
D03*
D124*
X247417Y162417D02*
D03*
Y174228D02*
D03*
D125*
X116732Y272047D02*
D03*
X156102D02*
D03*
X97047Y350787D02*
D03*
X175787D02*
D03*
X71569Y388417D02*
D03*
X209266D02*
D03*
D126*
X57740Y202307D02*
D03*
X58740Y60307D02*
D03*
D127*
X49323Y10417D02*
D03*
X37512D02*
D03*
X31606D02*
D03*
X25701D02*
D03*
X19795D02*
D03*
X362000Y50811D02*
D03*
Y44905D02*
D03*
Y39000D02*
D03*
Y33094D02*
D03*
Y21283D02*
D03*
D128*
X133000Y100500D02*
D03*
Y95500D02*
D03*
X134500Y105000D02*
D03*
X137500Y109000D02*
D03*
X133500Y113500D02*
D03*
X130000Y247000D02*
D03*
Y252500D02*
D03*
X124000D02*
D03*
X130500Y257500D02*
D03*
X124500Y258000D02*
D03*
X118500Y253000D02*
D03*
X119000Y258000D02*
D03*
X124500Y242000D02*
D03*
X129500Y241500D02*
D03*
X118500Y247000D02*
D03*
X119000Y242000D02*
D03*
X225937Y160500D02*
D03*
X210000Y118000D02*
D03*
X326718Y35000D02*
D03*
X325000Y39000D02*
D03*
Y43000D02*
D03*
X303000Y30000D02*
D03*
X304000Y43000D02*
D03*
Y47000D02*
D03*
X263000Y43000D02*
D03*
Y47000D02*
D03*
Y38000D02*
D03*
X347000Y40000D02*
D03*
X350000Y12000D02*
D03*
X342000D02*
D03*
X334000D02*
D03*
X232417Y157417D02*
D03*
X223805Y59955D02*
D03*
X200417Y70417D02*
D03*
X194417Y72417D02*
D03*
X146939Y85055D02*
D03*
X173417Y96417D02*
D03*
X161417Y73417D02*
D03*
Y63417D02*
D03*
X120836Y9417D02*
D03*
X67417Y4417D02*
D03*
X108417Y25417D02*
D03*
X126417Y87417D02*
D03*
X80417Y36417D02*
D03*
X49417Y115417D02*
D03*
X57417Y122417D02*
D03*
X57386Y126134D02*
D03*
X48417Y93417D02*
D03*
Y97417D02*
D03*
X44417Y93417D02*
D03*
X136417Y127417D02*
D03*
X121417Y95417D02*
D03*
X142314Y98314D02*
D03*
X138417Y101417D02*
D03*
X147417Y118417D02*
D03*
X155417Y113417D02*
D03*
X167417Y126417D02*
D03*
X153918Y136553D02*
D03*
X156417Y132505D02*
D03*
X124417Y227417D02*
D03*
X117146Y221146D02*
D03*
X199307Y134188D02*
D03*
X161417Y133417D02*
D03*
X198417Y129417D02*
D03*
X150417Y129094D02*
D03*
X143417Y130417D02*
D03*
X192417Y103417D02*
D03*
X196417Y86417D02*
D03*
X156417Y127417D02*
D03*
X203417Y72417D02*
D03*
X144417Y145417D02*
D03*
X177417Y123417D02*
D03*
X232417Y139417D02*
D03*
Y143417D02*
D03*
X228417D02*
D03*
X224417D02*
D03*
X228417Y139417D02*
D03*
X224417D02*
D03*
X215417Y109417D02*
D03*
X211417D02*
D03*
X214417Y100417D02*
D03*
X211417D02*
D03*
X208417D02*
D03*
X205417D02*
D03*
X120417Y135417D02*
D03*
X121417Y131417D02*
D03*
X250000Y53150D02*
D03*
Y45276D02*
D03*
X246063Y53150D02*
D03*
X248032Y49213D02*
D03*
X246063Y45276D02*
D03*
X242126Y53150D02*
D03*
X244095Y49213D02*
D03*
X242126Y45276D02*
D03*
X238189Y53150D02*
D03*
X240158Y49213D02*
D03*
X238189Y45276D02*
D03*
X234252Y53150D02*
D03*
X236221Y49213D02*
D03*
X234252Y45276D02*
D03*
X230315Y53150D02*
D03*
X232284Y49213D02*
D03*
X230315Y45276D02*
D03*
X161417Y57417D02*
D03*
X163417Y51417D02*
D03*
X163102Y89109D02*
D03*
X212599Y375985D02*
D03*
X210630Y372047D02*
D03*
X212599Y368110D02*
D03*
X208662Y375985D02*
D03*
X206693Y372047D02*
D03*
X208662Y368110D02*
D03*
X206693Y364174D02*
D03*
X202756Y387795D02*
D03*
Y379922D02*
D03*
X204725Y375985D02*
D03*
X202756Y372047D02*
D03*
X204725Y368110D02*
D03*
X202756Y364174D02*
D03*
X200788Y391733D02*
D03*
X198819Y387795D02*
D03*
X200788Y383858D02*
D03*
X198819Y379922D02*
D03*
X200788Y375985D02*
D03*
X198819Y372047D02*
D03*
X200788Y368110D02*
D03*
X198819Y364174D02*
D03*
X196851Y391733D02*
D03*
X194882Y387795D02*
D03*
X196851Y383858D02*
D03*
X194882Y379922D02*
D03*
X196851Y375985D02*
D03*
X194882Y372047D02*
D03*
X196851Y368110D02*
D03*
X194882Y364174D02*
D03*
X192913Y391733D02*
D03*
X190945Y387795D02*
D03*
X192913Y383858D02*
D03*
X190945Y379922D02*
D03*
X192913Y375985D02*
D03*
X190945Y372047D02*
D03*
X192913Y368110D02*
D03*
X190945Y364174D02*
D03*
X76772Y375985D02*
D03*
X74803Y379922D02*
D03*
X72835Y375985D02*
D03*
X74803Y372047D02*
D03*
X70866Y379922D02*
D03*
X68898Y375985D02*
D03*
X70866Y372047D02*
D03*
X64961Y391733D02*
D03*
Y383858D02*
D03*
X66929Y379922D02*
D03*
X64961Y375985D02*
D03*
X66929Y372047D02*
D03*
X64961Y368110D02*
D03*
X66929Y364174D02*
D03*
X64961Y360237D02*
D03*
X61024Y391733D02*
D03*
X62992Y387795D02*
D03*
X61024Y383858D02*
D03*
X62992Y379922D02*
D03*
X61024Y375985D02*
D03*
X62992Y372047D02*
D03*
X61024Y368110D02*
D03*
X62992Y364174D02*
D03*
X61024Y360237D02*
D03*
X57087Y391733D02*
D03*
X59055Y387795D02*
D03*
X57087Y383858D02*
D03*
X59055Y379922D02*
D03*
X57087Y375985D02*
D03*
X59055Y372047D02*
D03*
X57087Y368110D02*
D03*
X59055Y364174D02*
D03*
X57087Y360237D02*
D03*
X53150Y391733D02*
D03*
X55118Y387795D02*
D03*
X53150Y383858D02*
D03*
X55118Y379922D02*
D03*
X53150Y375985D02*
D03*
X55118Y372047D02*
D03*
X53150Y368110D02*
D03*
X55118Y364174D02*
D03*
X53150Y360237D02*
D03*
X49213Y391733D02*
D03*
X51181Y387795D02*
D03*
X49213Y383858D02*
D03*
X51181Y379922D02*
D03*
Y372047D02*
D03*
Y364174D02*
D03*
X45276Y391733D02*
D03*
X47244Y387795D02*
D03*
X45276Y383858D02*
D03*
X47244Y379922D02*
D03*
X41339Y391733D02*
D03*
X43307Y387795D02*
D03*
X41339Y383858D02*
D03*
X43307Y379922D02*
D03*
X37402Y391733D02*
D03*
X39370Y387795D02*
D03*
X37402Y383858D02*
D03*
X39370Y379922D02*
D03*
X33465Y391733D02*
D03*
X35433Y387795D02*
D03*
X33465Y383858D02*
D03*
X35433Y379922D02*
D03*
X68417Y346165D02*
D03*
Y338291D02*
D03*
Y330417D02*
D03*
X66449Y350102D02*
D03*
X64480Y346165D02*
D03*
X66449Y342228D02*
D03*
X64480Y338291D02*
D03*
X66449Y334354D02*
D03*
X64480Y330417D02*
D03*
X62512Y350102D02*
D03*
X60543Y346165D02*
D03*
X62512Y342228D02*
D03*
X60543Y338291D02*
D03*
X62512Y334354D02*
D03*
X60543Y330417D02*
D03*
X58575Y350102D02*
D03*
X56606Y346165D02*
D03*
X58575Y342228D02*
D03*
X56606Y338291D02*
D03*
X58575Y334354D02*
D03*
X56606Y330417D02*
D03*
X54638Y350102D02*
D03*
X52669Y346165D02*
D03*
X54638Y342228D02*
D03*
X52669Y338291D02*
D03*
X54638Y334354D02*
D03*
X52669Y330417D02*
D03*
X124417Y247417D02*
D03*
X92417Y250417D02*
D03*
Y254417D02*
D03*
X83417Y250417D02*
D03*
Y254417D02*
D03*
X65417Y256417D02*
D03*
X68417Y261417D02*
D03*
X65417D02*
D03*
X61417Y244417D02*
D03*
Y249417D02*
D03*
Y253417D02*
D03*
Y258417D02*
D03*
Y262417D02*
D03*
X68417Y226417D02*
D03*
X64417Y227417D02*
D03*
X58417D02*
D03*
X53417D02*
D03*
X60417Y234417D02*
D03*
X54417Y235417D02*
D03*
X68417Y220417D02*
D03*
X62417D02*
D03*
X53417D02*
D03*
X78417Y186417D02*
D03*
X77417Y193417D02*
D03*
X78417Y198417D02*
D03*
Y201417D02*
D03*
X78631Y207658D02*
D03*
X196404Y43116D02*
D03*
X192417Y43417D02*
D03*
X196417Y46417D02*
D03*
X192417D02*
D03*
X183243Y12417D02*
D03*
X178417Y20417D02*
D03*
Y17417D02*
D03*
X173417D02*
D03*
X168417D02*
D03*
X173417Y20417D02*
D03*
X168417D02*
D03*
X163417Y17417D02*
D03*
Y20417D02*
D03*
X93417Y27417D02*
D03*
Y32417D02*
D03*
X139417Y146417D02*
D03*
X125417Y145417D02*
D03*
X150417D02*
D03*
X120417Y115417D02*
D03*
X115417Y122417D02*
D03*
X119417Y104417D02*
D03*
X81417Y132417D02*
D03*
X82417Y136417D02*
D03*
X89417D02*
D03*
X98417Y138417D02*
D03*
X94417D02*
D03*
Y134417D02*
D03*
X98417D02*
D03*
Y130417D02*
D03*
X94417D02*
D03*
X90417Y157417D02*
D03*
Y150417D02*
D03*
X75417Y79417D02*
D03*
X52417D02*
D03*
X57417D02*
D03*
X62417D02*
D03*
X68417D02*
D03*
Y74417D02*
D03*
X75417D02*
D03*
Y68417D02*
D03*
X68417D02*
D03*
Y62417D02*
D03*
X75417D02*
D03*
X60105Y126134D02*
D03*
X49417Y112417D02*
D03*
Y107417D02*
D03*
Y102417D02*
D03*
X44417Y148417D02*
D03*
Y141417D02*
D03*
X18417Y99417D02*
D03*
X13417D02*
D03*
X8417D02*
D03*
M02*
