G04*
G04 #@! TF.GenerationSoftware,Altium Limited,Altium Designer,23.11.1 (41)*
G04*
G04 Layer_Color=8388736*
%FSLAX25Y25*%
%MOIN*%
G70*
G04*
G04 #@! TF.SameCoordinates,F81B5662-C64E-47A4-8FBC-E69FC3E7E543*
G04*
G04*
G04 #@! TF.FilePolarity,Negative*
G04*
G01*
G75*
%ADD40R,0.04331X0.02362*%
%ADD54R,0.13780X0.05512*%
%ADD55R,0.04331X0.06102*%
%ADD56R,0.04134X0.04331*%
%ADD57R,0.05709X0.01968*%
%ADD58R,0.06693X0.08661*%
%ADD59R,0.07874X0.07480*%
%ADD60R,0.07874X0.07874*%
%ADD61R,0.01575X0.05118*%
%ADD62R,0.05118X0.01575*%
%ADD63R,0.05512X0.02008*%
%ADD64R,0.06299X0.03937*%
%ADD65R,0.03937X0.06299*%
%ADD66R,0.03937X0.03937*%
%ADD67R,0.04331X0.04134*%
%ADD68R,0.06299X0.03150*%
%ADD69R,0.03543X0.04331*%
%ADD70R,0.02008X0.05512*%
%ADD71R,0.13386X0.06693*%
%ADD72R,0.05118X0.06693*%
%ADD73R,0.04724X0.02756*%
%ADD74R,0.05315X0.06693*%
%ADD75R,0.18123X0.13792*%
%ADD76R,0.25210X0.16154*%
%ADD77R,0.08661X0.04724*%
%ADD78R,0.03543X0.04764*%
%ADD79R,0.06102X0.04331*%
%ADD80R,0.04528X0.02559*%
%ADD81R,0.02559X0.04528*%
%ADD82R,0.11193X0.08894*%
%ADD83R,0.06693X0.06693*%
%ADD84R,0.04724X0.09449*%
%ADD85R,0.08268X0.12205*%
%ADD86C,0.06299*%
%ADD87C,0.12205*%
%ADD88C,0.10236*%
%ADD89C,0.04331*%
%ADD90C,0.00394*%
%ADD91C,0.09068*%
%ADD92O,0.08674X0.16548*%
%ADD93O,0.16548X0.08674*%
%ADD94O,0.07887X0.14973*%
%ADD95O,0.05118X0.06299*%
%ADD96O,0.06299X0.05118*%
%ADD97C,0.08268*%
%ADD98C,0.02375*%
D40*
X173417Y148417D02*
D03*
Y152748D02*
D03*
D54*
X13902Y104315D02*
D03*
Y112583D02*
D03*
D55*
X94890Y157204D02*
D03*
X102370D02*
D03*
X94890Y143204D02*
D03*
X102370D02*
D03*
X94890Y150204D02*
D03*
X102370D02*
D03*
X192157Y97417D02*
D03*
X184677D02*
D03*
X308260Y53000D02*
D03*
X315740D02*
D03*
X34661Y136449D02*
D03*
X42142D02*
D03*
X34661Y129449D02*
D03*
X42142D02*
D03*
X199677Y105417D02*
D03*
X207157D02*
D03*
X124677Y136417D02*
D03*
X132158D02*
D03*
X114417Y128417D02*
D03*
X106937D02*
D03*
X185677Y52417D02*
D03*
X193157D02*
D03*
D56*
X111661Y143204D02*
D03*
X117961D02*
D03*
X111661Y150204D02*
D03*
X117961D02*
D03*
X111661Y157204D02*
D03*
X117961D02*
D03*
X308850Y46000D02*
D03*
X315150D02*
D03*
X315099Y24669D02*
D03*
X308800D02*
D03*
X132567Y150417D02*
D03*
X126268D02*
D03*
X139268D02*
D03*
X145567D02*
D03*
X171417Y46417D02*
D03*
X165118D02*
D03*
X205567Y114417D02*
D03*
X199268D02*
D03*
X205567Y122417D02*
D03*
X199268D02*
D03*
X174567Y103417D02*
D03*
X168268D02*
D03*
X113433Y135489D02*
D03*
X107134D02*
D03*
X171417Y39417D02*
D03*
X165118D02*
D03*
Y57417D02*
D03*
X171417D02*
D03*
X165118Y69417D02*
D03*
X171417D02*
D03*
X165118Y63417D02*
D03*
X171417D02*
D03*
X126268Y130417D02*
D03*
X132567D02*
D03*
X105417Y121417D02*
D03*
X99118D02*
D03*
X104417Y93031D02*
D03*
X98118D02*
D03*
D57*
X236886Y119142D02*
D03*
Y116583D02*
D03*
Y121701D02*
D03*
Y114024D02*
D03*
Y124260D02*
D03*
D58*
X237378Y106937D02*
D03*
Y131346D02*
D03*
D59*
X247417Y104181D02*
D03*
Y134102D02*
D03*
D60*
Y114417D02*
D03*
Y123866D02*
D03*
D61*
X132591Y123147D02*
D03*
X134559D02*
D03*
X136528D02*
D03*
X138496D02*
D03*
X140465D02*
D03*
X142433D02*
D03*
X144402D02*
D03*
X146370D02*
D03*
X148339D02*
D03*
X150307D02*
D03*
X152276D02*
D03*
X154244D02*
D03*
Y89683D02*
D03*
X152276D02*
D03*
X150307D02*
D03*
X148339D02*
D03*
X146370D02*
D03*
X144402D02*
D03*
X142433D02*
D03*
X140465D02*
D03*
X138496D02*
D03*
X136528D02*
D03*
X134559D02*
D03*
X132591D02*
D03*
D62*
X160150Y117242D02*
D03*
Y115273D02*
D03*
Y113305D02*
D03*
Y111336D02*
D03*
Y109368D02*
D03*
Y107399D02*
D03*
Y105430D02*
D03*
Y103462D02*
D03*
Y101494D02*
D03*
Y99525D02*
D03*
Y97557D02*
D03*
Y95588D02*
D03*
X126685D02*
D03*
Y97557D02*
D03*
Y99525D02*
D03*
Y101494D02*
D03*
Y103462D02*
D03*
Y105430D02*
D03*
Y107399D02*
D03*
Y109368D02*
D03*
Y111336D02*
D03*
Y113304D02*
D03*
Y115273D02*
D03*
Y117242D02*
D03*
D03*
D63*
X166992Y76417D02*
D03*
Y91417D02*
D03*
Y86417D02*
D03*
Y81417D02*
D03*
X190417Y76417D02*
D03*
Y81417D02*
D03*
Y86417D02*
D03*
Y91417D02*
D03*
X204130Y147917D02*
D03*
Y142917D02*
D03*
Y137917D02*
D03*
Y132917D02*
D03*
X180705Y137917D02*
D03*
Y142917D02*
D03*
Y147917D02*
D03*
Y132917D02*
D03*
D64*
X155465Y16512D02*
D03*
Y21512D02*
D03*
Y26512D02*
D03*
Y31512D02*
D03*
Y36512D02*
D03*
Y41512D02*
D03*
Y46512D02*
D03*
Y51512D02*
D03*
Y56512D02*
D03*
Y61512D02*
D03*
Y66512D02*
D03*
Y71512D02*
D03*
Y76512D02*
D03*
X86567Y11512D02*
D03*
Y16512D02*
D03*
Y21512D02*
D03*
Y26512D02*
D03*
Y31512D02*
D03*
Y36512D02*
D03*
Y41512D02*
D03*
Y46512D02*
D03*
Y51512D02*
D03*
Y56512D02*
D03*
Y61512D02*
D03*
Y66512D02*
D03*
Y71512D02*
D03*
Y76512D02*
D03*
X155465Y11512D02*
D03*
D65*
X143516Y81433D02*
D03*
X138516D02*
D03*
X133516D02*
D03*
X128516D02*
D03*
X123516D02*
D03*
X118516D02*
D03*
X113516D02*
D03*
X108516D02*
D03*
X103516D02*
D03*
X98516D02*
D03*
D66*
X127905Y41906D02*
D03*
Y36394D02*
D03*
X122394Y41906D02*
D03*
X127905Y47417D02*
D03*
X133417Y41906D02*
D03*
Y47417D02*
D03*
X122394D02*
D03*
Y36394D02*
D03*
X133417D02*
D03*
D67*
X200417Y77118D02*
D03*
Y83417D02*
D03*
X226417Y165417D02*
D03*
Y171716D02*
D03*
Y184417D02*
D03*
Y178118D02*
D03*
X138417Y134268D02*
D03*
Y140567D02*
D03*
X150417Y134268D02*
D03*
Y140567D02*
D03*
X144417Y134268D02*
D03*
Y140567D02*
D03*
X227417Y154417D02*
D03*
Y148118D02*
D03*
X181000Y18850D02*
D03*
Y25150D02*
D03*
X232417Y162417D02*
D03*
Y168717D02*
D03*
X192417Y68567D02*
D03*
Y62268D02*
D03*
X24902Y111598D02*
D03*
Y105299D02*
D03*
X49949Y148768D02*
D03*
Y155067D02*
D03*
X159417Y89567D02*
D03*
Y83268D02*
D03*
X120417Y119417D02*
D03*
Y125716D02*
D03*
X166417Y122716D02*
D03*
Y116417D02*
D03*
D68*
X240528Y159465D02*
D03*
Y171276D02*
D03*
Y177181D02*
D03*
D69*
X251551Y153953D02*
D03*
X243284D02*
D03*
X251551Y182693D02*
D03*
X243284D02*
D03*
D70*
X30902Y121661D02*
D03*
X35902D02*
D03*
X40902D02*
D03*
X45902D02*
D03*
X40902Y98236D02*
D03*
X35902D02*
D03*
X30902D02*
D03*
X45902D02*
D03*
D71*
X67449Y159016D02*
D03*
D72*
X76504Y133819D02*
D03*
X67449D02*
D03*
X58394D02*
D03*
D73*
X213968Y122158D02*
D03*
Y118417D02*
D03*
Y114677D02*
D03*
X223417Y122158D02*
D03*
Y118417D02*
D03*
Y114677D02*
D03*
D74*
X110748Y115201D02*
D03*
Y100634D02*
D03*
X102087Y115201D02*
D03*
Y100634D02*
D03*
D75*
X65417Y195417D02*
D03*
X66417Y53417D02*
D03*
D76*
X30181Y172583D02*
D03*
Y223370D02*
D03*
X31181Y30583D02*
D03*
Y81370D02*
D03*
D77*
X210417Y92417D02*
D03*
Y82417D02*
D03*
Y72417D02*
D03*
Y62417D02*
D03*
Y52417D02*
D03*
D78*
X161417Y144138D02*
D03*
X165157Y136697D02*
D03*
X157677D02*
D03*
X230417Y201138D02*
D03*
X234157Y193697D02*
D03*
X226677D02*
D03*
X186158Y68138D02*
D03*
X178677D02*
D03*
X182417Y60697D02*
D03*
X172158Y32858D02*
D03*
X164677D02*
D03*
X168417Y25417D02*
D03*
X311949Y39350D02*
D03*
X315689Y31909D02*
D03*
X308209D02*
D03*
D79*
X218417Y147898D02*
D03*
Y140417D02*
D03*
X211417Y148158D02*
D03*
Y140677D02*
D03*
X200417Y90417D02*
D03*
Y97898D02*
D03*
X232575Y30779D02*
D03*
Y38260D02*
D03*
X240575Y30779D02*
D03*
Y38260D02*
D03*
X248575Y30779D02*
D03*
Y38260D02*
D03*
X49949Y141917D02*
D03*
Y134437D02*
D03*
X88417Y131898D02*
D03*
Y124417D02*
D03*
X84417Y140417D02*
D03*
Y147898D02*
D03*
X172417Y123898D02*
D03*
Y116417D02*
D03*
X171417Y5937D02*
D03*
Y13417D02*
D03*
X178417Y5937D02*
D03*
Y13417D02*
D03*
X164417Y5677D02*
D03*
Y13158D02*
D03*
D80*
X154905Y150417D02*
D03*
X165929D02*
D03*
X195394Y200417D02*
D03*
X206417D02*
D03*
X223929Y104417D02*
D03*
X212906D02*
D03*
D81*
X67417Y235394D02*
D03*
Y246417D02*
D03*
X173417Y143929D02*
D03*
Y132905D02*
D03*
D82*
X19139Y142964D02*
D03*
Y125563D02*
D03*
D83*
X75417Y250504D02*
D03*
Y236331D02*
D03*
D84*
X88378Y251134D02*
D03*
X108457Y251134D02*
D03*
X88378Y216587D02*
D03*
X108457Y216587D02*
D03*
D85*
X67417Y97394D02*
D03*
Y119441D02*
D03*
D86*
X47417Y304417D02*
D03*
X27732D02*
D03*
X116732Y272047D02*
D03*
X156102D02*
D03*
X97047Y350787D02*
D03*
X175787D02*
D03*
X71569Y388417D02*
D03*
X209266D02*
D03*
X190732Y173417D02*
D03*
X210417D02*
D03*
X47260Y259417D02*
D03*
X27575D02*
D03*
D87*
X40417Y364417D02*
D03*
Y344417D02*
D03*
X215000Y271000D02*
D03*
Y291000D02*
D03*
Y322000D02*
D03*
Y342000D02*
D03*
D88*
X96417Y199417D02*
D03*
X156417D02*
D03*
X86417Y169417D02*
D03*
X116417D02*
D03*
X156417D02*
D03*
X158417Y242417D02*
D03*
X218417D02*
D03*
X148417Y212417D02*
D03*
X178417D02*
D03*
X218417D02*
D03*
D89*
X318681Y72976D02*
D03*
X304469Y86992D02*
D03*
X318524Y87169D02*
D03*
D90*
X247417Y162417D02*
D03*
Y174228D02*
D03*
D91*
X15221Y197976D02*
D03*
X16220Y55976D02*
D03*
D92*
X32937Y197976D02*
D03*
X33937Y55976D02*
D03*
D93*
X45535Y179079D02*
D03*
X46535Y37079D02*
D03*
D94*
X57740Y202307D02*
D03*
X58740Y60307D02*
D03*
D95*
X49323Y10417D02*
D03*
X43417D02*
D03*
X37512D02*
D03*
X31606D02*
D03*
X25701D02*
D03*
X19795D02*
D03*
D96*
X362000Y50811D02*
D03*
Y44905D02*
D03*
Y39000D02*
D03*
Y33094D02*
D03*
Y27189D02*
D03*
Y21283D02*
D03*
D97*
X206417Y13417D02*
D03*
Y33102D02*
D03*
D98*
X81500Y13000D02*
D03*
X225937Y160500D02*
D03*
M02*
