G04*
G04 #@! TF.GenerationSoftware,Altium Limited,Altium Designer,23.11.1 (41)*
G04*
G04 Layer_Color=32896*
%FSLAX25Y25*%
%MOIN*%
G70*
G04*
G04 #@! TF.SameCoordinates,F81B5662-C64E-47A4-8FBC-E69FC3E7E543*
G04*
G04*
G04 #@! TF.FilePolarity,Positive*
G04*
G01*
G75*
%ADD10C,0.00787*%
%ADD13C,0.00394*%
%ADD18C,0.00197*%
G36*
X298101Y23505D02*
X295952D01*
X298074Y21535D01*
X293349D01*
X295478Y23505D01*
X293377D01*
Y23899D01*
X298101D01*
Y23505D01*
D02*
G37*
G36*
X370190Y13973D02*
X370176Y13944D01*
X370165Y13917D01*
X370151Y13893D01*
X370140Y13871D01*
X370130Y13854D01*
X370123Y13843D01*
X370121Y13841D01*
Y13839D01*
X370101Y13806D01*
X370080Y13777D01*
X370063Y13752D01*
X370046Y13731D01*
X370032Y13714D01*
X370023Y13701D01*
X370015Y13693D01*
X370013Y13691D01*
X371000D01*
Y13535D01*
X369733D01*
Y13637D01*
X369763Y13654D01*
X369794Y13676D01*
X369823Y13699D01*
X369850Y13722D01*
X369871Y13743D01*
X369888Y13760D01*
X369900Y13771D01*
X369902Y13773D01*
X369904Y13775D01*
X369934Y13812D01*
X369963Y13850D01*
X369988Y13889D01*
X370009Y13923D01*
X370027Y13954D01*
X370032Y13967D01*
X370038Y13979D01*
X370044Y13987D01*
X370048Y13994D01*
X370050Y13998D01*
Y14000D01*
X370201D01*
X370190Y13973D01*
D02*
G37*
G36*
X295048Y14939D02*
X295391D01*
Y14794D01*
X295048D01*
Y14450D01*
X294904D01*
Y14794D01*
X294558D01*
Y14939D01*
X294904D01*
Y15283D01*
X295048D01*
Y14939D01*
D02*
G37*
G36*
X295501Y29017D02*
X295345D01*
Y29491D01*
X295501D01*
Y29017D01*
D02*
G37*
D10*
X275315Y63882D02*
G03*
X275315Y63882I-276J0D01*
G01*
X275039Y45378D02*
G03*
X275039Y51677I0J3150D01*
G01*
X330471Y45206D02*
G03*
X330471Y45206I-394J0D01*
G01*
X275039Y51677D02*
Y55221D01*
X305354D01*
Y48528D02*
Y55221D01*
X275039Y41835D02*
Y45378D01*
Y41835D02*
X305354D01*
Y48528D01*
X356488Y15181D02*
X370661D01*
Y56913D01*
X356488D02*
X370661D01*
X356488Y15181D02*
Y56913D01*
D13*
X283014Y68663D02*
Y73387D01*
X271990Y68663D02*
X283014D01*
X271990D02*
Y73387D01*
X283014D01*
X283101Y29355D02*
Y34080D01*
X272078Y29355D02*
X283101D01*
X272078D02*
Y34080D01*
X283101D01*
X271990Y74663D02*
Y79387D01*
X283014D01*
Y74663D02*
Y79387D01*
X271990Y74663D02*
X283014D01*
X280377Y17056D02*
X285101D01*
X280377D02*
Y28080D01*
X285101D01*
Y17056D02*
Y28080D01*
X296014Y62663D02*
Y67387D01*
X284990Y62663D02*
X296014D01*
X284990D02*
Y67387D01*
X296014D01*
X286377Y17056D02*
X291101D01*
X286377D02*
Y28080D01*
X291101D01*
Y17056D02*
Y28080D01*
X301101Y95355D02*
Y100080D01*
X290078Y95355D02*
X301101D01*
X290078D02*
Y100080D01*
X301101D01*
X309163Y62663D02*
Y67387D01*
X298140Y62663D02*
X309163D01*
X298140D02*
Y67387D01*
X309163D01*
X300377Y17056D02*
X305101D01*
X300377D02*
Y28080D01*
X305101D01*
Y17056D02*
Y28080D01*
X348948Y83355D02*
Y88080D01*
X359971D01*
Y83355D02*
Y88080D01*
X348948Y83355D02*
X359971D01*
Y71355D02*
Y76080D01*
X348948Y71355D02*
X359971D01*
X348948D02*
Y76080D01*
X359971D01*
X348948Y77355D02*
Y82080D01*
X359971D01*
Y77355D02*
Y82080D01*
X348948Y77355D02*
X359971D01*
X330101Y58355D02*
Y63080D01*
X319078Y58355D02*
X330101D01*
X319078D02*
Y63080D01*
X330101D01*
X322479Y39351D02*
Y56084D01*
X314900D02*
X322479D01*
X314900Y39351D02*
Y56084D01*
Y39351D02*
X322479D01*
X336771Y55836D02*
X340708D01*
X341889Y49143D02*
Y52292D01*
X336771Y45599D02*
X340708D01*
X276927Y80481D02*
Y87568D01*
X280077Y80481D02*
Y87568D01*
X290196Y83143D02*
X297282D01*
X290196Y86292D02*
X297282D01*
X265771Y33993D02*
X269708D01*
X265771Y35962D02*
X269708D01*
X348031Y23724D02*
X351969D01*
X348031Y21756D02*
X351969D01*
X340032Y23724D02*
X343969D01*
X340032Y21756D02*
X343969D01*
X332031Y23724D02*
X335968D01*
X332031Y21756D02*
X335968D01*
X355444Y64749D02*
Y68686D01*
X353475Y64749D02*
Y68686D01*
X335755Y59749D02*
Y63686D01*
X337723Y59749D02*
Y63686D01*
D18*
X278439Y63450D02*
Y66600D01*
X276864Y63450D02*
Y66600D01*
X275164Y21930D02*
X278314D01*
X275164Y23505D02*
X278314D01*
X291289Y70450D02*
Y73599D01*
X289715Y70450D02*
Y73599D01*
X317377Y65143D02*
Y68292D01*
X315802Y65143D02*
Y68292D01*
X267164Y50655D02*
X270314D01*
X267164Y49080D02*
X270314D01*
X304526Y69143D02*
Y72292D01*
X302952Y69143D02*
Y72292D01*
X338952Y39143D02*
Y42292D01*
X340527Y39143D02*
Y42292D01*
M02*
