G04*
G04 #@! TF.GenerationSoftware,Altium Limited,Altium Designer,23.11.1 (41)*
G04*
G04 Layer_Color=128*
%FSLAX25Y25*%
%MOIN*%
G70*
G04*
G04 #@! TF.SameCoordinates,F81B5662-C64E-47A4-8FBC-E69FC3E7E543*
G04*
G04*
G04 #@! TF.FilePolarity,Positive*
G04*
G01*
G75*
%ADD22R,0.03937X0.05709*%
%ADD23R,0.03740X0.03937*%
%ADD34R,0.03937X0.03740*%
%ADD47R,0.05709X0.03937*%
%ADD133R,0.06693X0.04528*%
%ADD134R,0.02284X0.04646*%
%ADD135R,0.04331X0.02362*%
%ADD136R,0.04528X0.07087*%
%ADD137R,0.07087X0.04528*%
D22*
X350719Y66718D02*
D03*
X358200D02*
D03*
X340479Y61718D02*
D03*
X332999D02*
D03*
D23*
X274352Y71025D02*
D03*
X280651D02*
D03*
X274440Y31718D02*
D03*
X280739D02*
D03*
X280651Y77025D02*
D03*
X274352D02*
D03*
X287352Y65025D02*
D03*
X293652D02*
D03*
X292440Y97718D02*
D03*
X298739D02*
D03*
X300502Y65025D02*
D03*
X306801D02*
D03*
X357609Y85718D02*
D03*
X351310D02*
D03*
Y73718D02*
D03*
X357609D02*
D03*
Y79718D02*
D03*
X351310D02*
D03*
X321440Y60718D02*
D03*
X327739D02*
D03*
X274502Y65025D02*
D03*
X280801D02*
D03*
X287352Y72025D02*
D03*
X293652D02*
D03*
X313440Y66718D02*
D03*
X319739D02*
D03*
X300589Y70718D02*
D03*
X306889D02*
D03*
X342889Y40718D02*
D03*
X336590D02*
D03*
D34*
X282739Y25718D02*
D03*
Y19418D02*
D03*
X288739Y25718D02*
D03*
Y19418D02*
D03*
X302739Y25718D02*
D03*
Y19418D02*
D03*
X276739Y25867D02*
D03*
Y19568D02*
D03*
X268739Y46718D02*
D03*
Y53017D02*
D03*
D47*
X267739Y38718D02*
D03*
Y31237D02*
D03*
X350000Y19000D02*
D03*
Y26480D02*
D03*
X342000Y19000D02*
D03*
Y26480D02*
D03*
X334000Y19000D02*
D03*
Y26480D02*
D03*
X295739Y18977D02*
D03*
Y26458D02*
D03*
D133*
X318739Y42009D02*
D03*
Y53426D02*
D03*
D134*
X275000Y59000D02*
D03*
X280000D02*
D03*
X285000D02*
D03*
X290000D02*
D03*
X295000D02*
D03*
X300000D02*
D03*
X305000D02*
D03*
Y38055D02*
D03*
X300000D02*
D03*
X295000D02*
D03*
X290000D02*
D03*
X285000D02*
D03*
X280000D02*
D03*
X275000D02*
D03*
D135*
X343857Y54458D02*
D03*
Y46977D02*
D03*
X333621Y54458D02*
D03*
Y50718D02*
D03*
Y46977D02*
D03*
D136*
X272793Y84025D02*
D03*
X284211D02*
D03*
D137*
X293739Y79009D02*
D03*
Y90426D02*
D03*
M02*
